<svg xmlns="http://www.w3.org/2000/svg" width="70" height="71" viewBox="0 0 70 71" fill="none">
  <path d="M20.7175 36.6951L42.5925 58.5701C42.9035 58.8599 43.3148 59.0177 43.7399 59.0102C44.1649 59.0027 44.5704 58.8305 44.871 58.5299C45.1716 58.2293 45.3438 57.8238 45.3513 57.3988C45.3588 56.9737 45.201 56.5624 44.9112 56.2514L24.1983 35.5357L44.9112 14.8201C45.201 14.5091 45.3588 14.0978 45.3513 13.6727C45.3438 13.2477 45.1716 12.8422 44.871 12.5416C44.5704 12.241 44.1649 12.0688 43.7399 12.0613C43.3148 12.0538 42.9035 12.2116 42.5925 12.5014L20.7175 34.3764C20.4102 34.684 20.2377 35.101 20.2377 35.5357C20.2377 35.9705 20.4102 36.3875 20.7175 36.6951Z" fill="#8D5A3B"/>
</svg>