<svg xmlns="http://www.w3.org/2000/svg" width="20" height="20" viewBox="0 0 20 20" fill="none">
  <path d="M5.08171 13.2918H2.16016V5.17706H12.2246V13.2918M12.2246 13.2918H7.34121M12.2246 13.2918H13.8646M12.2246 13.2918V9.39844H17.4178M17.4178 9.39844V13.2918H16.1332M17.4178 9.39844L15.4712 6.7988H12.2246" stroke="black" stroke-width="1.55492" stroke-miterlimit="10"/>
  <path d="M6.21785 14.5915C6.84515 14.5915 7.35368 14.083 7.35368 13.4557C7.35368 12.8284 6.84515 12.3199 6.21785 12.3199C5.59056 12.3199 5.08203 12.8284 5.08203 13.4557C5.08203 14.083 5.59056 14.5915 6.21785 14.5915Z" stroke="black" stroke-width="1.55492" stroke-miterlimit="10"/>
  <path d="M13.8633 13.2947C13.8779 12.9922 14.0103 12.7075 14.2321 12.5013C14.4538 12.2951 14.7474 12.1837 15.0501 12.1911C15.3529 12.1984 15.6407 12.3238 15.8522 12.5405C16.0638 12.7572 16.1822 13.048 16.1822 13.3509C16.1822 13.6537 16.0638 13.9445 15.8522 14.1612C15.6407 14.3779 15.3529 14.5033 15.0501 14.5106C14.7474 14.518 14.4538 14.4066 14.2321 14.2004C14.0103 13.9942 13.8779 13.7095 13.8633 13.407V13.2947Z" stroke="black" stroke-width="1.55492" stroke-miterlimit="10"/>
</svg>