<svg xmlns="http://www.w3.org/2000/svg" width="20" height="21" viewBox="0 0 20 21" fill="none">
  <path d="M8.74511 13.8043L6.20621 17.7736L5.4166 15.5961L3.10547 15.7935L5.64133 11.8242C6.26318 12.6598 7.1226 13.2885 8.10734 13.6281C8.28072 13.6879 8.4571 13.7386 8.63577 13.78L8.74511 13.8043ZM16.4681 15.7935L14.157 15.5961L13.3643 17.7736L10.8254 13.8043L10.9378 13.78C11.1156 13.739 11.291 13.6883 11.4632 13.6281C12.448 13.2902 13.3076 12.6624 13.9292 11.8272L16.4681 15.7935Z" stroke="black" stroke-width="1.55492"/>
  <path d="M14.9507 8.74145C14.9554 9.81406 14.6217 10.8608 13.9971 11.7329C13.9756 11.7655 13.9522 11.7969 13.9273 11.827C13.3057 12.6622 12.446 13.29 11.4613 13.6279C11.289 13.6881 11.1136 13.7388 10.9359 13.7798L10.8235 13.8041C10.4818 13.875 10.1338 13.9107 9.78485 13.9104C9.43491 13.9105 9.08587 13.8749 8.74318 13.8041L8.63384 13.7798C8.45517 13.7384 8.27879 13.6877 8.10541 13.6279C7.12067 13.2883 6.26124 12.6596 5.6394 11.824C5.61814 11.7966 5.59385 11.7663 5.57259 11.7329C4.95146 10.8595 4.62005 9.81317 4.62506 8.74145C4.62506 7.37218 5.169 6.05899 6.13722 5.09077C7.10543 4.12255 8.41862 3.57861 9.78789 3.57861C11.1572 3.57861 12.4703 4.12255 13.4386 5.09077C14.4068 6.05899 14.9507 7.37218 14.9507 8.74145Z" stroke="black" stroke-width="1.55492"/>
  <path d="M11.031 9.39145L11.3226 11.1013L9.78892 10.2934L8.25526 11.1013L8.5468 9.39145L7.30469 8.18274L9.02057 7.93371L9.78892 6.37878L10.5573 7.93371L12.2701 8.18274L11.031 9.39145Z" stroke="black" stroke-width="1.55492"/>
</svg>