<svg xmlns="http://www.w3.org/2000/svg" width="31" height="133" viewBox="0 0 31 133" fill="none">
  <rect width="5.63636" height="5.63636" rx="2" transform="matrix(-1 0 0 1 5.63281 70.4546)" fill="#FF0000"/>
  <rect width="5.63636" height="5.63636" rx="2" transform="matrix(-1 0 0 1 5.63281 98.6364)" fill="#FF0000"/>
  <rect width="5.63636" height="5.63636" rx="2" transform="matrix(-1 0 0 1 5.63281 84.5455)" fill="#FF0000"/>
  <rect width="5.63636" height="5.63636" rx="2" transform="matrix(-1 0 0 1 5.63281 112.727)" fill="#FF0000"/>
  <rect width="5.63636" height="5.63636" rx="2" transform="matrix(-1 0 0 1 5.63281 126.818)" fill="#FF0000"/>
  <rect width="5.63636" height="5.63636" rx="2" transform="matrix(-1 0 0 1 19.7266 70.4546)" fill="#FF0000"/>
  <rect width="5.63636" height="5.63636" rx="2" transform="matrix(-1 0 0 1 19.7266 98.6364)" fill="#FF0000"/>
  <rect width="5.63636" height="5.63636" rx="2" transform="matrix(-1 0 0 1 19.7266 84.5455)" fill="#FF0000"/>
  <rect width="5.63636" height="5.63636" rx="2" transform="matrix(-1 0 0 1 19.7266 112.727)" fill="#FF0000"/>
  <rect width="5.63636" height="5.63636" rx="2" transform="matrix(-1 0 0 1 19.7266 126.818)" fill="#FF0000"/>
  <rect width="5.63636" height="5.63636" rx="2" transform="matrix(-1 0 0 1 33.8203 0)" fill="#0DB760"/>
  <rect width="5.63636" height="5.63636" rx="2" transform="matrix(-1 0 0 1 33.8203 28.1819)" fill="#0DB760"/>
  <rect width="5.63636" height="5.63636" rx="2" transform="matrix(-1 0 0 1 33.8203 14.0909)" fill="#0DB760"/>
  <rect width="5.63636" height="5.63636" rx="2" transform="matrix(-1 0 0 1 33.8203 42.2728)" fill="#0DB760"/>
  <rect width="5.63636" height="5.63636" rx="2" transform="matrix(-1 0 0 1 33.8203 56.3636)" fill="#0DB760"/>
  <rect width="5.63636" height="5.63636" rx="2" transform="matrix(-1 0 0 1 5.63281 0)" fill="#0DB760"/>
  <rect width="5.63636" height="5.63636" rx="2" transform="matrix(-1 0 0 1 5.63281 28.1819)" fill="#0DB760"/>
  <rect width="5.63636" height="5.63636" rx="2" transform="matrix(-1 0 0 1 5.63281 14.0909)" fill="#0DB760"/>
  <rect width="5.63636" height="5.63636" rx="2" transform="matrix(-1 0 0 1 5.63281 42.2728)" fill="#0DB760"/>
  <rect width="5.63636" height="5.63636" rx="2" transform="matrix(-1 0 0 1 5.63281 56.3636)" fill="#0DB760"/>
  <rect width="5.63636" height="5.63636" rx="2" transform="matrix(-1 0 0 1 19.7266 0)" fill="#0DB760"/>
  <rect width="5.63636" height="5.63636" rx="2" transform="matrix(-1 0 0 1 19.7266 28.1819)" fill="#0DB760"/>
  <rect width="5.63636" height="5.63636" rx="2" transform="matrix(-1 0 0 1 19.7266 14.0909)" fill="#0DB760"/>
  <rect width="5.63636" height="5.63636" rx="2" transform="matrix(-1 0 0 1 19.7266 42.2728)" fill="#0DB760"/>
  <rect width="5.63636" height="5.63636" rx="2" transform="matrix(-1 0 0 1 19.7266 56.3636)" fill="#0DB760"/>
  <rect width="5.63636" height="5.63636" rx="2" transform="matrix(-1 0 0 1 33.8203 70.4546)" fill="#0DB760"/>
  <rect width="5.63636" height="5.63636" rx="2" transform="matrix(-1 0 0 1 33.8203 98.6364)" fill="#0DB760"/>
  <rect width="5.63636" height="5.63636" rx="2" transform="matrix(-1 0 0 1 33.8203 84.5455)" fill="#0DB760"/>
  <rect width="5.63636" height="5.63636" rx="2" transform="matrix(-1 0 0 1 33.8203 112.727)" fill="#0DB760"/>
  <rect width="5.63636" height="5.63636" rx="2" transform="matrix(-1 0 0 1 33.8203 126.818)" fill="#0DB760"/>
</svg>