<svg xmlns="http://www.w3.org/2000/svg" width="39" height="24" viewBox="0 0 39 24" fill="none">
  <g clip-path="url(#clip0_162_216)">
    <path opacity="0.07" d="M35.0694 0.111633H3.58161C1.90883 0.111633 0.629639 1.39082 0.629639 3.06361V20.7755C0.629639 22.4483 2.00723 23.7274 3.58161 23.7274H35.0694C36.7421 23.7274 38.0213 22.4483 38.0213 20.7755V3.06361C38.0213 1.39082 36.6437 0.111633 35.0694 0.111633Z" fill="black"/>
    <path d="M35.0697 1.0957C36.1521 1.0957 37.0377 1.9813 37.0377 3.06369V20.7755C37.0377 21.8579 36.1521 22.7435 35.0697 22.7435H3.582C2.49961 22.7435 1.61401 21.8579 1.61401 20.7755V3.06369C1.61401 1.9813 2.49961 1.0957 3.582 1.0957H35.0697Z" fill="white"/>
    <path fill-rule="evenodd" clip-rule="evenodd" d="M20.3611 15.1628C20.3611 15.1628 22.8506 14.4042 24.5745 14.3992C27.4242 14.3924 29.3538 15.5308 29.3538 15.5308V10.0106C29.3538 10.0106 27.4153 9.00697 24.9721 8.93809C22.5308 8.87118 20.3601 9.93389 20.3601 9.93389V15.1618L20.3611 15.1628Z" fill="#5A78FF"/>
    <path fill-rule="evenodd" clip-rule="evenodd" d="M17.6609 9.15446L19.7096 14.0321V9.35716C19.7096 9.35716 21.3292 8.48928 23.1388 8.24525C24.9493 8.00024 27.2528 8.32397 27.2528 8.32397L26.138 5.66031C26.138 5.66031 23.7164 5.50385 21.5231 6.4416C19.3307 7.37836 17.6609 9.15446 17.6609 9.15446Z" fill="#5A78FF"/>
    <path d="M21.7154 5.69678L20.9085 3.73864C20.7292 3.29945 20.3828 2.94948 19.9454 2.76569C19.5081 2.5819 19.0157 2.57934 18.5765 2.75858L13.0041 5.05522C12.5663 5.23751 12.2188 5.58617 12.038 6.02458C11.8572 6.46299 11.8578 6.95526 12.0398 7.39318L17.4124 20.4281C17.5919 20.8671 17.9384 21.2169 18.3757 21.4005C18.813 21.5841 19.3054 21.5865 19.7445 21.4072L25.3158 19.1106C25.5327 19.0204 25.7297 18.8884 25.8955 18.7221C26.0613 18.5558 26.1928 18.3585 26.2823 18.1414C26.3719 17.9242 26.4178 17.6916 26.4174 17.4568C26.417 17.2219 26.3704 16.9894 26.2801 16.7726L25.614 15.1569C25.614 15.1569 25.1594 15.1303 24.9488 15.1244C24.7264 15.1185 24.3151 15.1234 24.3151 15.1234L25.181 17.2252C25.2112 17.2975 25.2269 17.3751 25.2271 17.4534C25.2273 17.5318 25.2121 17.6094 25.1823 17.6819C25.1525 17.7543 25.1088 17.8202 25.0535 17.8758C24.9982 17.9313 24.9326 17.9754 24.8602 18.0055L19.2879 20.3012C19.1416 20.361 18.9776 20.3603 18.8318 20.2992C18.686 20.2381 18.5705 20.1217 18.5105 19.9755L13.1379 6.94055C13.0773 6.79453 13.0771 6.63041 13.1375 6.48426C13.1978 6.33812 13.3137 6.22193 13.4597 6.16123L19.0311 3.86459C19.1775 3.80484 19.3416 3.80569 19.4874 3.86696C19.6332 3.92822 19.7486 4.04488 19.8084 4.19127L20.6251 6.17008C20.6251 6.17008 21.002 5.98607 21.2057 5.9044C21.4084 5.82372 21.7154 5.69678 21.7154 5.69678Z" fill="#5A78FF"/>
  </g>
  <defs>
    <clipPath id="clip0_162_216">
      <rect width="37.3917" height="23.6158" fill="white" transform="translate(0.629639 0.111694)"/>
    </clipPath>
  </defs>
</svg>