<svg xmlns="http://www.w3.org/2000/svg" width="39" height="24" viewBox="0 0 39 24" fill="none">
  <g clip-path="url(#clip0_162_222)">
    <path d="M8.19927 4.23167L5.85448 20.5878C5.65191 22.0015 5.17344 22.9236 4.64306 22.9236C4.11341 22.9236 3.63566 22.0036 3.43273 20.591L1.07851 4.23167C0.840362 2.57749 1.26147 0.75585 1.88225 0.75585C2.24346 0.75585 2.56691 1.39992 2.69543 2.37353L4.63871 17.084L6.58053 2.37461C6.64547 1.89418 6.75786 1.48276 6.90304 1.194C7.04823 0.905247 7.21947 0.752559 7.39444 0.75585L8.19927 4.23167ZM11.7838 3.8667L9.21937 21.5463C9.15846 21.9578 9.05814 22.3074 8.93079 22.5522C8.80344 22.7969 8.65464 22.926 8.50276 22.9236C7.94769 22.9236 7.57159 21.2909 7.78614 19.8117L10.3506 2.13308C10.4115 1.72166 10.5118 1.37199 10.6391 1.12724C10.7665 0.882492 10.9153 0.753382 11.0672 0.75585L11.7838 3.8667ZM26.6421 3.18935V20.4901C26.6421 21.834 26.2645 22.9236 25.7988 22.9236C25.3334 22.9236 24.9558 21.834 24.9558 20.4901V3.18935C24.9558 1.8454 25.3334 0.75585 25.7991 0.75585L26.6421 3.18935ZM32.5529 20.5856C32.5529 21.8254 32.2044 22.8291 31.7749 22.8291H28.8562C28.4267 22.8291 28.0782 21.8244 28.0782 20.5835V3.20438C28.0782 1.85184 28.4579 0.75585 28.9266 0.75585C29.3949 0.75585 29.775 1.85184 29.775 3.20438V18.34H31.7753L32.5529 20.5856ZM38.2172 20.5856C38.2172 21.8254 37.869 22.8291 37.4399 22.8291H34.5234C34.0936 22.8291 33.7454 21.8244 33.7454 20.5835V3.20438C33.7458 1.85291 34.1251 0.75585 34.5934 0.75585C35.0618 0.75585 35.4411 1.85184 35.4411 3.20438V18.34H37.4399L38.2172 20.5856ZM18.4965 19.4821C18.7343 21.1363 18.3132 22.9579 17.6928 22.9579C17.3316 22.9579 17.0081 22.3139 16.8796 21.3402L14.9356 6.62975L12.9941 21.3392C12.9292 21.8196 12.8168 22.231 12.6716 22.5198C12.5264 22.8085 12.3552 22.9612 12.1802 22.9579C11.5594 22.9579 11.138 21.1374 11.3754 19.4821L13.7194 3.12602C13.9224 1.71229 14.4005 0.790201 14.9309 0.790201C15.4609 0.790201 15.9383 1.71014 16.1416 3.12172L18.4965 19.4821ZM22.6158 22.0401C22.1896 22.7561 21.632 23.0578 21.0036 23.0578H20.1962C19.8255 23.0578 19.4131 21.9328 19.4131 20.7885C19.4131 19.7451 19.7384 18.793 20.1962 18.793H20.9992C21.6076 18.793 22.1438 18.2401 22.1438 16.1856C22.1438 14.0601 21.5837 13.663 20.9992 13.663H19.5878C19.2919 13.6909 19.0178 13.1885 18.9053 12.3963C18.7118 11.047 19.0552 9.5624 19.5613 9.5624H20.3759C21.042 9.5624 21.6113 8.5437 21.6113 7.25127C21.6113 5.95884 21.2835 5.01206 20.6391 5.01206H18.6297C18.4851 5.0147 18.3434 4.89156 18.2222 4.65795C18.1011 4.42434 18.0058 4.09058 17.9483 3.69817C17.7476 2.29732 18.1044 0.756924 18.6297 0.756924H20.6391C22.0919 0.756924 23.2935 2.31235 23.2935 6.41076C23.2935 7.78585 23.0583 9.52161 22.5003 10.6348C23.25 11.354 23.752 13.4998 23.7854 15.87L22.6158 22.0401Z" fill="#5A00FF"/>
  </g>
  <defs>
    <clipPath id="clip0_162_222">
      <rect width="37.3917" height="23.6158" fill="white" transform="translate(0.909424 0.111755)"/>
    </clipPath>
  </defs>
</svg>