<svg xmlns="http://www.w3.org/2000/svg" width="28" height="28" viewBox="0 0 28 28" fill="none">
  <path d="M19.4615 2.90527H8.31066C5.23144 2.90527 2.73523 5.40148 2.73523 8.48071V19.6316C2.73523 22.7108 5.23144 25.207 8.31066 25.207H19.4615C22.5408 25.207 25.037 22.7108 25.037 19.6316V8.48071C25.037 5.40148 22.5408 2.90527 19.4615 2.90527Z" stroke="white" stroke-width="2.23017" stroke-linecap="round" stroke-linejoin="round"/>
  <path d="M18.3501 13.3535C18.4877 14.2815 18.3292 15.2293 17.8971 16.062C17.465 16.8948 16.7813 17.5701 15.9433 17.9919C15.1053 18.4136 14.1556 18.5605 13.2294 18.4114C12.3031 18.2624 11.4474 17.825 10.784 17.1617C10.1206 16.4983 9.68332 15.6426 9.53427 14.7163C9.38522 13.7901 9.53204 12.8404 9.95383 12.0024C10.3756 11.1644 11.0509 10.4807 11.8837 10.0486C12.7164 9.61651 13.6642 9.458 14.5922 9.59561C15.5388 9.73599 16.4152 10.1771 17.0919 10.8538C17.7686 11.5305 18.2097 12.4068 18.3501 13.3535Z" stroke="white" stroke-width="2.23017" stroke-linecap="round" stroke-linejoin="round"/>
  <path d="M20.0243 7.92236H20.0343" stroke="white" stroke-width="2.23017" stroke-linecap="round" stroke-linejoin="round"/>
</svg>