<svg xmlns="http://www.w3.org/2000/svg" width="28" height="28" viewBox="0 0 28 28" fill="none">
  <path d="M18.102 9.5957C19.8764 9.5957 21.5782 10.3006 22.8329 11.5553C24.0876 12.81 24.7925 14.5118 24.7925 16.2862V24.0918H20.3321V16.2862C20.3321 15.6947 20.0972 15.1275 19.6789 14.7093C19.2607 14.291 18.6935 14.056 18.102 14.056C17.5105 14.056 16.9432 14.291 16.525 14.7093C16.1068 15.1275 15.8718 15.6947 15.8718 16.2862V24.0918H11.4115V16.2862C11.4115 14.5118 12.1163 12.81 13.3711 11.5553C14.6258 10.3006 16.3275 9.5957 18.102 9.5957V9.5957Z" stroke="white" stroke-width="2.23017" stroke-linecap="round" stroke-linejoin="round"/>
  <path d="M6.94992 10.7104H2.48958V24.0915H6.94992V10.7104Z" stroke="white" stroke-width="2.23017" stroke-linecap="round" stroke-linejoin="round"/>
  <path d="M4.71975 7.36562C5.95144 7.36562 6.94992 6.36714 6.94992 5.13545C6.94992 3.90376 5.95144 2.90527 4.71975 2.90527C3.48806 2.90527 2.48958 3.90376 2.48958 5.13545C2.48958 6.36714 3.48806 7.36562 4.71975 7.36562Z" stroke="white" stroke-width="2.23017" stroke-linecap="round" stroke-linejoin="round"/>
</svg>