<svg xmlns="http://www.w3.org/2000/svg" width="200" height="159" viewBox="0 0 200 159" fill="none">
  <path d="M145.191 0.629883H121.544C121.459 0.629883 121.389 0.698688 121.389 0.783563V96.9029C121.389 96.9878 121.459 97.0566 121.544 97.0566H145.191C145.276 97.0566 145.345 96.9878 145.345 96.9029V0.783563C145.345 0.698688 145.276 0.629883 145.191 0.629883Z" fill="white"/>
  <path d="M23.786 71.4944C23.7031 71.2573 23.6617 71.2654 23.6617 71.5185V136.974C23.6617 137.009 23.6479 137.043 23.6235 137.068C23.599 137.093 23.5659 137.107 23.5313 137.107L0.115231 137.104C0.0384105 137.104 0 137.066 0 136.989V0.940148C0 0.829659 0.0555946 0.774414 0.166782 0.774414H3.38717C3.48825 0.774414 3.55597 0.822627 3.59034 0.919054L31.273 79.7057C31.2842 79.7382 31.2825 79.7737 31.2684 79.8046C31.2542 79.8355 31.2287 79.8595 31.1972 79.8714L27.3915 81.3118C27.3768 81.3176 27.3611 81.3204 27.3453 81.32C27.3294 81.3196 27.3139 81.3161 27.2994 81.3096C27.285 81.3032 27.2721 81.2939 27.2613 81.2824C27.2506 81.2709 27.2422 81.2573 27.2369 81.2425L23.786 71.4944Z" fill="white"/>
  <path d="M78.4904 1.3291L102.319 1.33211C102.335 1.33217 102.351 1.33603 102.365 1.34336C102.379 1.3507 102.391 1.3613 102.4 1.37428C102.41 1.38726 102.416 1.40225 102.418 1.41798C102.42 1.43371 102.418 1.44973 102.413 1.4647L52.1087 137.035C52.1018 137.054 52.0891 137.071 52.0723 137.083C52.0555 137.094 52.0354 137.101 52.0147 137.101L48.7215 137.104C48.7009 137.104 48.6808 137.098 48.664 137.086C48.6471 137.074 48.6344 137.057 48.6275 137.038L38.4054 108.444C38.3978 108.423 38.3978 108.399 38.4054 108.378L78.3964 1.39539C78.4033 1.37606 78.416 1.35931 78.4329 1.34745C78.4497 1.33558 78.4698 1.32917 78.4904 1.3291Z" fill="white"/>
  <path d="M92.1814 128.377C94.9682 125.783 96.8331 122.405 97.4578 118.687C97.6053 117.803 97.6791 116.488 97.6791 114.742C97.6872 98.7995 97.6882 82.855 97.6822 66.9084C97.6822 66.812 97.7307 66.7638 97.8277 66.7638L101.906 66.7607C102.017 66.7607 102.073 66.816 102.073 66.9265V137.002C102.073 137.029 102.062 137.055 102.042 137.074C102.022 137.093 101.995 137.104 101.967 137.104L78.5175 137.101C78.4894 137.101 78.4624 137.09 78.4425 137.07C78.4226 137.05 78.4114 137.024 78.4114 136.996V133.072C78.4114 133.051 78.4156 133.03 78.4239 133.011C78.4322 132.991 78.4444 132.974 78.4597 132.959C78.475 132.945 78.4931 132.933 78.5129 132.926C78.5328 132.918 78.5539 132.915 78.5751 132.916C83.7939 133.126 88.3091 131.978 92.1814 128.377Z" fill="white"/>
  <path d="M145.351 132.913C154.853 132.941 164.353 132.942 173.853 132.916C176.64 132.908 178.648 132.755 179.875 132.458C187.668 130.565 192.905 123.487 192.902 115.637C192.902 115.014 192.904 114.394 192.908 113.775C192.91 113.65 192.973 113.588 193.096 113.588L197.147 113.585C197.244 113.585 197.293 113.634 197.293 113.733V137.056C197.293 137.069 197.288 137.081 197.279 137.09C197.27 137.099 197.257 137.104 197.244 137.104H121.65C121.621 137.104 121.593 137.093 121.573 137.072C121.553 137.052 121.541 137.024 121.541 136.996V112.332C121.541 112.304 121.552 112.277 121.572 112.257C121.592 112.237 121.619 112.226 121.647 112.226H145.094C145.121 112.226 145.147 112.237 145.166 112.256C145.186 112.275 145.197 112.301 145.197 112.329V132.759C145.197 132.861 145.248 132.913 145.351 132.913Z" fill="white"/>
  <path d="M83.4968 156.573H91.6873C91.7483 156.573 91.8085 156.558 91.8629 156.53C91.9173 156.502 91.9642 156.461 91.9996 156.41C92.0744 156.302 92.1695 156.215 92.2847 156.148C92.3065 156.135 92.3313 156.129 92.3566 156.128C92.3819 156.128 92.4068 156.135 92.4288 156.147C92.4507 156.16 92.4688 156.178 92.4814 156.2C92.4939 156.222 92.5003 156.247 92.5 156.272L92.497 158.279C92.497 158.646 92.3706 158.696 92.1179 158.426L91.9663 158.264C91.9347 158.229 91.8963 158.202 91.8535 158.183C91.8107 158.165 91.7644 158.155 91.7176 158.155H80.1461C80.1215 158.155 80.0978 158.146 80.0785 158.131C80.0592 158.116 80.0454 158.095 80.0392 158.072C80.033 158.048 80.0348 158.023 80.0442 158.001C80.0537 157.978 80.0703 157.959 80.0915 157.947L80.4584 157.742C80.4997 157.719 80.5341 157.686 80.558 157.646C80.582 157.606 80.5947 157.56 80.5949 157.513V149.248C80.5949 149.19 80.5787 149.134 80.5481 149.085C80.5175 149.037 80.4738 148.998 80.422 148.973L80.0278 148.787C80.0063 148.777 79.9888 148.76 79.9781 148.739C79.9675 148.718 79.9644 148.695 79.9694 148.672C79.9743 148.649 79.9871 148.628 80.0054 148.613C80.0238 148.599 80.0467 148.591 80.0702 148.591C83.8203 148.589 87.5703 148.588 91.3204 148.588C91.6085 148.588 91.8541 148.44 91.9814 148.211C91.998 148.18 92.0246 148.155 92.0569 148.141C92.0893 148.127 92.1256 148.124 92.1599 148.132C92.1943 148.141 92.2246 148.161 92.2462 148.189C92.2677 148.217 92.2791 148.251 92.2786 148.286L92.2665 150.531C92.2664 150.555 92.2593 150.578 92.2461 150.597C92.2329 150.616 92.2142 150.631 92.1924 150.64C92.1706 150.649 92.1467 150.651 92.1237 150.646C92.1007 150.641 92.0797 150.629 92.0633 150.613L91.6934 150.242C91.6703 150.219 91.6428 150.201 91.6127 150.189C91.5825 150.176 91.5502 150.17 91.5175 150.17H83.4938C83.4751 150.17 83.4566 150.173 83.4393 150.181C83.422 150.188 83.4063 150.198 83.393 150.211C83.3798 150.224 83.3693 150.24 83.3621 150.257C83.355 150.274 83.3513 150.293 83.3513 150.311V152.288C83.3513 152.385 83.3988 152.433 83.4938 152.433H88.6943C88.8136 152.433 88.9117 152.387 88.9885 152.294L89.2462 151.981C89.2624 151.961 89.2844 151.946 89.3093 151.939C89.3342 151.932 89.3606 151.933 89.385 151.942C89.4094 151.95 89.4304 151.966 89.4452 151.987C89.46 152.008 89.4678 152.033 89.4676 152.059L89.4767 154.087C89.4787 154.567 89.3594 154.606 89.1189 154.205C89.0926 154.16 89.0087 154.102 88.8672 154.03C88.7782 153.986 88.6802 153.963 88.5731 153.961C86.8143 153.944 85.1141 153.941 83.4726 153.951C83.4396 153.951 83.408 153.965 83.3847 153.988C83.3614 154.011 83.3483 154.042 83.3483 154.075L83.3543 156.434C83.3543 156.527 83.4018 156.573 83.4968 156.573Z" fill="white"/>
  <path d="M108.657 150.326V157.501C108.657 157.549 108.669 157.596 108.693 157.638C108.717 157.679 108.751 157.714 108.793 157.739L109.178 157.971C109.197 157.982 109.212 157.999 109.22 158.019C109.228 158.039 109.229 158.062 109.223 158.083C109.217 158.104 109.204 158.123 109.186 158.137C109.168 158.15 109.146 158.158 109.124 158.158L105.545 158.152C105.262 158.152 105.24 158.077 105.479 157.926C105.776 157.739 105.924 157.514 105.924 157.251C105.912 154.953 105.898 152.654 105.882 150.353C105.882 150.231 105.819 150.17 105.694 150.17H101.746C101.696 150.17 101.648 150.18 101.603 150.2C101.558 150.221 101.517 150.25 101.485 150.287L101.157 150.658C101.145 150.672 101.129 150.683 101.11 150.687C101.092 150.692 101.072 150.691 101.054 150.684C101.036 150.677 101.02 150.665 101.009 150.649C100.998 150.633 100.991 150.614 100.991 150.595L100.985 148.208C100.985 148.065 101.043 148.037 101.161 148.124C101.262 148.198 101.346 148.288 101.415 148.395C101.453 148.454 101.506 148.503 101.568 148.536C101.63 148.57 101.699 148.588 101.77 148.588H112.775C112.884 148.588 112.976 148.549 113.05 148.473L113.375 148.142C113.391 148.125 113.412 148.113 113.435 148.108C113.458 148.104 113.482 148.106 113.504 148.114C113.526 148.123 113.545 148.138 113.558 148.158C113.571 148.177 113.578 148.2 113.578 148.223L113.575 150.477C113.575 150.509 113.564 150.541 113.544 150.566C113.525 150.592 113.497 150.61 113.466 150.619C113.435 150.627 113.401 150.625 113.371 150.613C113.341 150.601 113.316 150.58 113.299 150.552C112.981 150.004 112.326 150.188 111.838 150.176C110.825 150.154 109.811 150.156 108.796 150.182C108.703 150.184 108.657 150.232 108.657 150.326Z" fill="white"/>
  <path d="M126.093 150.17H122.129C122.002 150.17 121.896 150.218 121.811 150.314L121.541 150.616C121.525 150.633 121.505 150.645 121.482 150.651C121.459 150.657 121.436 150.656 121.414 150.648C121.392 150.64 121.373 150.626 121.36 150.607C121.347 150.588 121.341 150.566 121.341 150.543L121.332 148.368C121.332 148.01 121.436 147.976 121.644 148.265C121.969 148.714 122.505 148.585 123.003 148.585C126.377 148.591 129.751 148.592 133.125 148.588C133.212 148.588 133.29 148.562 133.361 148.509C133.497 148.415 133.606 148.295 133.689 148.151C133.702 148.126 133.724 148.106 133.75 148.095C133.777 148.083 133.806 148.081 133.834 148.088C133.861 148.096 133.886 148.112 133.903 148.135C133.92 148.158 133.929 148.186 133.928 148.214L133.919 150.528C133.92 150.553 133.912 150.578 133.898 150.599C133.884 150.619 133.863 150.635 133.84 150.644C133.816 150.652 133.79 150.653 133.766 150.647C133.741 150.64 133.72 150.626 133.704 150.607L133.422 150.287C133.391 150.25 133.352 150.221 133.308 150.201C133.264 150.18 133.216 150.17 133.167 150.17H129.189C129.082 150.17 129.028 150.223 129.028 150.329V157.54C129.028 157.637 129.072 157.705 129.161 157.745C129.313 157.812 129.446 157.902 129.562 158.016C129.573 158.028 129.58 158.043 129.583 158.059C129.586 158.075 129.584 158.092 129.577 158.107C129.571 158.122 129.56 158.135 129.547 158.144C129.533 158.153 129.517 158.158 129.501 158.158L125.853 158.152C125.826 158.152 125.8 158.143 125.779 158.126C125.758 158.11 125.743 158.087 125.737 158.061C125.73 158.035 125.732 158.008 125.743 157.984C125.754 157.959 125.772 157.939 125.795 157.926L126.077 157.769C126.189 157.709 126.244 157.616 126.244 157.489L126.247 150.323C126.247 150.221 126.196 150.17 126.093 150.17Z" fill="white"/>
  <path d="M146.173 156.573H154.406C154.463 156.573 154.519 156.561 154.572 156.537C154.624 156.513 154.671 156.478 154.709 156.435L154.879 156.239C154.904 156.21 154.938 156.19 154.975 156.181C155.012 156.172 155.051 156.174 155.086 156.187C155.122 156.2 155.153 156.224 155.174 156.254C155.195 156.285 155.207 156.322 155.206 156.359V158.306C155.206 158.802 155.096 158.836 154.876 158.408C154.773 158.203 154.542 158.111 154.184 158.131C153.94 158.145 153.809 158.153 153.793 158.155C150.14 158.161 146.487 158.159 142.834 158.149C142.811 158.149 142.789 158.142 142.771 158.128C142.753 158.113 142.74 158.094 142.734 158.072C142.729 158.049 142.731 158.026 142.74 158.005C142.749 157.984 142.765 157.967 142.786 157.956L143.156 157.757C143.255 157.705 143.304 157.623 143.304 157.51V149.239C143.304 149.108 143.245 149.017 143.125 148.965L142.737 148.79C142.727 148.786 142.718 148.78 142.711 148.772C142.704 148.764 142.698 148.755 142.695 148.745C142.691 148.734 142.69 148.723 142.691 148.713C142.692 148.702 142.696 148.691 142.701 148.681C142.715 148.653 142.729 148.627 142.743 148.603C142.747 148.595 142.753 148.591 142.761 148.591L154.233 148.588C154.282 148.588 154.33 148.577 154.375 148.555C154.419 148.534 154.457 148.503 154.488 148.464L154.57 148.359C154.848 148.001 154.987 148.05 154.985 148.504L154.973 150.532C154.973 150.555 154.965 150.579 154.951 150.598C154.938 150.618 154.918 150.633 154.896 150.642C154.873 150.651 154.849 150.653 154.825 150.648C154.802 150.642 154.78 150.63 154.764 150.613L154.448 150.281C154.38 150.207 154.294 150.17 154.19 150.17H146.173C146.118 150.17 146.091 150.197 146.091 150.251V152.349C146.091 152.37 146.1 152.391 146.115 152.406C146.13 152.421 146.151 152.43 146.173 152.43C147.855 152.436 149.573 152.436 151.328 152.43C151.441 152.428 151.539 152.403 151.622 152.355C151.751 152.278 151.833 152.205 151.868 152.135C151.886 152.101 151.915 152.074 151.951 152.058C151.986 152.042 152.026 152.039 152.063 152.048C152.101 152.057 152.135 152.078 152.159 152.108C152.183 152.137 152.197 152.174 152.198 152.213L152.192 154.241C152.191 154.284 152.174 154.324 152.145 154.355C152.115 154.387 152.076 154.407 152.033 154.411C151.991 154.416 151.948 154.405 151.912 154.381C151.877 154.357 151.851 154.321 151.84 154.28C151.818 154.184 151.74 154.101 151.607 154.033C151.512 153.983 151.398 153.958 151.264 153.958C149.516 153.948 147.816 153.945 146.167 153.949C146.116 153.949 146.091 153.974 146.091 154.024V156.492C146.091 156.513 146.1 156.534 146.115 156.549C146.13 156.565 146.151 156.573 146.173 156.573Z" fill="white"/>
  <path d="M197.396 151.037C195.974 150.284 191.419 149.184 190.361 150.989C190.288 151.115 190.267 151.264 190.305 151.405C190.342 151.545 190.435 151.666 190.561 151.739C190.935 151.956 191.364 152.082 191.847 152.116C194.112 152.273 195.877 152.246 197.484 152.848C198.885 153.373 199.965 154.689 199.191 156.169C197.527 159.351 190.837 158.321 188.25 157.302C188.032 157.215 187.841 157.242 187.638 157.311C187.308 157.42 187.232 157.325 187.407 157.028L188.614 154.982C188.624 154.966 188.638 154.953 188.654 154.944C188.671 154.935 188.689 154.931 188.708 154.932C188.727 154.933 188.745 154.939 188.76 154.949C188.776 154.96 188.788 154.974 188.796 154.991C189.272 155.958 190.079 156.121 191.213 156.404C192.293 156.672 196.799 157.175 196.741 155.178C196.739 155.129 196.726 155.081 196.703 155.038C196.68 154.994 196.647 154.957 196.608 154.928C195.592 154.189 192.56 154.247 191.253 154.147C189.727 154.033 187.611 153.153 187.717 151.405C187.917 148.114 193.478 148.229 195.61 148.648C196.584 148.841 197.549 149.079 198.503 149.362C198.78 149.444 198.969 149.453 199.07 149.389C199.103 149.367 199.143 149.357 199.183 149.36C199.222 149.364 199.259 149.382 199.287 149.411C199.315 149.439 199.332 149.476 199.335 149.516C199.338 149.556 199.327 149.595 199.304 149.627L198.024 151.525C197.933 151.662 197.843 151.661 197.754 151.522L197.508 151.143C197.48 151.099 197.442 151.063 197.396 151.037Z" fill="white"/>
  <path d="M4.16646 151.875L4.16343 157.48C4.16343 157.592 4.21094 157.68 4.30595 157.742L4.70623 157.995C4.872 158.102 4.85683 158.155 4.66074 158.155H1.22202C1.19387 158.154 1.16671 158.145 1.14477 158.127C1.12284 158.109 1.10738 158.085 1.10079 158.058C1.09421 158.031 1.09688 158.002 1.10839 157.977C1.1199 157.951 1.1396 157.93 1.1644 157.917L1.44338 157.769C1.55659 157.711 1.61319 157.619 1.61319 157.492V149.251C1.61327 149.201 1.60013 149.153 1.57511 149.11C1.55008 149.067 1.51406 149.031 1.47067 149.006L1.29783 148.91C0.925855 148.697 0.954157 148.59 1.38273 148.588H5.77969C5.80466 148.588 5.82894 148.597 5.84901 148.612C5.86908 148.627 5.8839 148.647 5.89133 148.671C5.89876 148.694 5.89841 148.719 5.89034 148.742C5.88226 148.765 5.86687 148.785 5.8464 148.799L5.66749 148.916C5.6241 148.945 5.587 148.982 5.55838 149.026C5.52977 149.069 5.51022 149.118 5.50089 149.169C5.49156 149.22 5.49264 149.273 5.50407 149.324C5.5155 149.374 5.53704 149.422 5.56742 149.464L8.98189 154.21C8.99179 154.224 9.00484 154.236 9.01998 154.244C9.03513 154.252 9.05194 154.256 9.06906 154.256C9.08618 154.256 9.10313 154.253 9.11854 154.245C9.13395 154.238 9.14738 154.227 9.15776 154.213L12.8148 149.278C12.8312 149.256 12.8428 149.231 12.8486 149.204C12.8545 149.178 12.8545 149.15 12.8488 149.124C12.843 149.097 12.8316 149.072 12.8153 149.05C12.799 149.029 12.7781 149.01 12.7542 148.997L12.3569 148.771C12.3205 148.751 12.3064 148.721 12.3145 148.681C12.3205 148.653 12.3327 148.631 12.3509 148.615C12.363 148.607 12.3802 148.603 12.4024 148.603C13.9368 148.575 15.4722 148.575 17.0086 148.603C17.2391 148.607 17.2532 148.665 17.0511 148.777L16.6811 148.979C16.5901 149.03 16.5446 149.107 16.5446 149.211V157.45C16.5446 157.57 16.5942 157.665 16.6932 157.733L17.0693 157.986C17.237 158.101 17.2188 158.158 17.0147 158.158L13.2879 158.155C13.2647 158.155 13.2422 158.148 13.2239 158.134C13.2057 158.12 13.1927 158.101 13.1871 158.078C13.1816 158.056 13.1837 158.032 13.1931 158.01C13.2026 157.988 13.2189 157.97 13.2394 157.959L13.5123 157.811C13.6861 157.717 13.7731 157.571 13.7731 157.374L13.7761 151.827C13.7761 151.638 13.7195 151.619 13.6063 151.77L8.92427 157.905C8.9144 157.918 8.90149 157.929 8.88656 157.936C8.87164 157.943 8.85511 157.947 8.83831 157.947C8.82151 157.946 8.8049 157.942 8.78981 157.934C8.77472 157.927 8.76158 157.915 8.75142 157.902L4.35144 151.815C4.22812 151.646 4.16646 151.666 4.16646 151.875Z" fill="white"/>
  <path d="M32.7255 152.246L35.3 149.426C35.3445 149.377 35.3682 149.314 35.366 149.249C35.3637 149.184 35.3356 149.123 35.2879 149.079C35.1625 148.961 35.014 148.885 34.8421 148.853C34.7835 148.841 34.7542 148.805 34.7542 148.745V148.657C34.7542 148.613 34.7764 148.591 34.8209 148.591L39.4392 148.588C39.8375 148.588 39.8385 148.663 39.4422 148.814C39.1542 148.919 38.7812 149.097 38.5416 149.344C37.0396 150.897 35.5537 152.466 34.084 154.051C34.0153 154.125 33.9809 154.214 33.9809 154.316V157.462C33.9809 157.563 34.0183 157.647 34.0931 157.715C34.2084 157.818 34.3418 157.89 34.4934 157.932C34.5399 157.946 34.5722 157.976 34.5904 158.023C34.6026 158.051 34.6046 158.079 34.5965 158.107C34.5884 158.139 34.5682 158.155 34.5358 158.155H30.7211C30.6972 158.156 30.6738 158.148 30.6547 158.134C30.6356 158.119 30.622 158.099 30.616 158.076C30.61 158.053 30.6121 158.029 30.6218 158.007C30.6315 157.985 30.6484 157.967 30.6696 157.956L31.0789 157.736C31.1139 157.717 31.1432 157.689 31.164 157.655C31.1847 157.62 31.1962 157.581 31.1972 157.541L31.2063 154.316C31.2063 154.206 31.1639 154.1 31.088 154.021C29.6022 152.432 28.089 150.873 26.5486 149.344C26.2837 149.083 26.0442 148.92 25.8299 148.856C25.7987 148.847 25.772 148.826 25.7547 148.799C25.7373 148.771 25.7303 148.739 25.7351 148.707C25.7399 148.675 25.756 148.645 25.7806 148.624C25.8053 148.603 25.8367 148.591 25.8693 148.591L29.9569 148.588C30.4381 148.588 30.4826 148.728 30.0904 149.007L29.9873 149.082C29.9647 149.098 29.9457 149.119 29.9317 149.143C29.9176 149.167 29.9087 149.193 29.9056 149.221C29.9024 149.248 29.9051 149.276 29.9134 149.303C29.9218 149.329 29.9356 149.354 29.9539 149.374L32.492 152.246C32.5688 152.332 32.6467 152.332 32.7255 152.246Z" fill="white"/>
  <path d="M62.5702 156.573H70.3574C70.4033 156.573 70.4486 156.564 70.4903 156.546C70.5321 156.528 70.5695 156.501 70.6 156.468L70.9214 156.13C70.938 156.113 70.9594 156.101 70.983 156.096C71.0065 156.09 71.0311 156.092 71.0536 156.101C71.076 156.11 71.0953 156.125 71.1091 156.145C71.1228 156.164 71.1303 156.188 71.1306 156.212V158.457C71.1306 158.712 71.0457 158.745 70.8759 158.556L70.6455 158.3C70.5605 158.203 70.4534 158.155 70.324 158.155H59.086C59.0663 158.155 59.0472 158.149 59.031 158.138C59.0149 158.127 59.0026 158.111 58.9957 158.093C58.9887 158.074 58.9876 158.054 58.9924 158.035C58.9971 158.016 59.0076 157.999 59.0223 157.987C59.1173 157.908 59.2255 157.849 59.3468 157.809C59.4192 157.786 59.4823 157.741 59.527 157.68C59.5717 157.619 59.5957 157.546 59.5954 157.471V149.263C59.5955 149.217 59.5849 149.171 59.5644 149.129C59.5439 149.088 59.5141 149.051 59.4772 149.022C59.3761 148.945 59.2669 148.889 59.1497 148.853C59.0789 148.831 59.0334 148.806 59.0132 148.778C58.991 148.746 58.9839 148.706 58.992 148.66C58.9961 148.641 59.0068 148.623 59.0222 148.611C59.0377 148.598 59.0569 148.591 59.0769 148.591L62.7704 148.588C62.7986 148.587 62.8261 148.597 62.8479 148.615C62.8697 148.633 62.8842 148.658 62.889 148.686C62.8938 148.713 62.8884 148.742 62.8739 148.766C62.8593 148.79 62.8366 148.808 62.8098 148.817C62.6865 148.861 62.5732 148.927 62.4701 149.016C62.3913 149.082 62.3519 149.167 62.3519 149.272V156.356C62.3519 156.501 62.4247 156.573 62.5702 156.573Z" fill="white"/>
  <path d="M168.085 154.394V157.495C168.085 157.552 168.101 157.608 168.131 157.657C168.161 157.706 168.204 157.746 168.255 157.772L168.594 157.95C168.616 157.961 168.634 157.98 168.644 158.002C168.654 158.024 168.656 158.049 168.65 158.073C168.644 158.097 168.631 158.118 168.611 158.133C168.592 158.147 168.568 158.155 168.543 158.155H164.819C164.639 158.155 164.623 158.105 164.771 158.004L165.168 157.736C165.259 157.674 165.304 157.588 165.304 157.477V149.266C165.304 149.135 165.247 149.04 165.132 148.979L164.777 148.796C164.756 148.785 164.739 148.767 164.729 148.746C164.72 148.724 164.717 148.7 164.723 148.677C164.728 148.655 164.742 148.634 164.76 148.62C164.779 148.605 164.802 148.597 164.825 148.597C167.647 148.583 170.504 148.576 173.395 148.576C174.62 148.576 176.324 148.829 177.161 149.67C178.271 150.79 178.122 152.731 176.633 153.521C175.995 153.858 175.321 154.065 174.614 154.141C174.595 154.143 174.577 154.15 174.561 154.161C174.546 154.172 174.535 154.188 174.528 154.206C174.521 154.223 174.52 154.243 174.524 154.261C174.528 154.28 174.537 154.297 174.55 154.31C175.557 155.392 176.755 156.95 177.983 157.751C178.393 158.018 178.353 158.153 177.861 158.155H174.092C173.823 158.155 173.811 158.1 174.056 157.989L174.332 157.863C174.366 157.847 174.396 157.824 174.419 157.794C174.443 157.765 174.459 157.731 174.467 157.695C174.474 157.658 174.473 157.621 174.464 157.585C174.454 157.549 174.436 157.516 174.411 157.489L171.56 154.352C171.53 154.318 171.492 154.291 171.451 154.272C171.41 154.253 171.365 154.244 171.321 154.244H168.234C168.135 154.244 168.085 154.294 168.085 154.394ZM168.085 150.272V152.568C168.085 152.596 168.096 152.622 168.115 152.641C168.135 152.66 168.161 152.671 168.188 152.671H173.416C173.87 152.671 174.305 152.544 174.625 152.318C174.946 152.092 175.126 151.785 175.126 151.465V151.375C175.126 151.055 174.946 150.749 174.625 150.523C174.305 150.297 173.87 150.17 173.416 150.17H168.188C168.161 150.17 168.135 150.181 168.115 150.2C168.096 150.219 168.085 150.245 168.085 150.272Z" fill="white"/>
  <path d="M49.8978 153.285C49.922 153.209 49.9706 153.15 50.0433 153.108C50.2455 152.991 50.3446 153.049 50.3405 153.282L50.3162 155.353C50.3154 155.38 50.3062 155.406 50.29 155.428C50.2738 155.45 50.2513 155.467 50.2255 155.476C50.1996 155.485 50.1715 155.486 50.145 155.479C50.1185 155.472 50.0947 155.458 50.0767 155.437L49.8007 155.108C49.7361 155.032 49.6532 154.994 49.5521 154.994L46.8624 154.991C46.813 154.991 46.7642 155.002 46.7191 155.022C46.6741 155.043 46.634 155.074 46.6016 155.111L46.3014 155.455C46.2871 155.472 46.2679 155.484 46.2464 155.49C46.2249 155.496 46.202 155.494 46.1809 155.486C46.1598 155.479 46.1415 155.464 46.1283 155.446C46.1152 155.427 46.1078 155.405 46.1073 155.383L46.1043 153.096C46.1038 153.073 46.1103 153.051 46.1228 153.032C46.1353 153.013 46.1532 152.999 46.1742 152.99C46.1952 152.982 46.2184 152.98 46.2405 152.985C46.2627 152.989 46.2828 153.001 46.2983 153.017L46.638 153.379C46.6695 153.413 46.7083 153.44 46.7517 153.458C46.7951 153.476 46.8421 153.485 46.8897 153.484L49.6552 153.469C49.7104 153.468 49.7638 153.45 49.8075 153.417C49.8512 153.384 49.8828 153.338 49.8978 153.285Z" fill="white"/>
</svg>