<svg xmlns="http://www.w3.org/2000/svg" width="79" height="64" viewBox="0 0 79 64" fill="none">
  <path d="M57.5086 0.924622H48.1424C48.1086 0.924622 48.0812 0.951875 48.0812 0.985493V39.0575C48.0812 39.0911 48.1086 39.1183 48.1424 39.1183H57.5086C57.5424 39.1183 57.5699 39.0911 57.5699 39.0575V0.985493C57.5699 0.951875 57.5424 0.924622 57.5086 0.924622Z" fill="#432818"/>
  <path d="M9.42142 28.9934C9.38859 28.8995 9.37217 28.9027 9.37217 29.003V54.9293C9.37217 54.9433 9.36673 54.9566 9.35704 54.9665C9.34736 54.9763 9.33422 54.9819 9.32052 54.9819L0.0456419 54.9807C0.015214 54.9807 0 54.9655 0 54.9353V1.04755C0 1.00378 0.0220205 0.981903 0.0660608 0.981903H1.34163C1.38166 0.981903 1.40849 1.001 1.4221 1.03919L12.3869 32.2459C12.3914 32.2587 12.3907 32.2728 12.3851 32.285C12.3795 32.2972 12.3694 32.3067 12.3569 32.3115L10.8495 32.882C10.8437 32.8843 10.8375 32.8854 10.8312 32.8853C10.8249 32.8851 10.8188 32.8837 10.8131 32.8812C10.8073 32.8786 10.8022 32.8749 10.7979 32.8704C10.7937 32.8658 10.7904 32.8604 10.7883 32.8546L9.42142 28.9934Z" fill="#432818"/>
  <path d="M31.0893 1.20153L40.5275 1.20272C40.5338 1.20275 40.5401 1.20427 40.5457 1.20718C40.5513 1.21008 40.5561 1.21428 40.5598 1.21943C40.5634 1.22457 40.5658 1.2305 40.5666 1.23673C40.5675 1.24296 40.5668 1.24931 40.5647 1.25524L20.6397 54.9532C20.637 54.9609 20.632 54.9675 20.6253 54.9722C20.6186 54.9769 20.6107 54.9795 20.6025 54.9795L19.2981 54.9807C19.2899 54.9807 19.282 54.9781 19.2753 54.9734C19.2686 54.9687 19.2636 54.9621 19.2609 54.9544L15.212 43.6288C15.2089 43.6203 15.2089 43.611 15.212 43.6025L31.052 1.22779C31.0548 1.22013 31.0598 1.2135 31.0665 1.2088C31.0731 1.2041 31.0811 1.20156 31.0893 1.20153Z" fill="#432818"/>
  <path d="M36.5122 51.5241C37.616 50.4965 38.3547 49.1585 38.6021 47.6857C38.6606 47.3356 38.6898 46.8148 38.6898 46.1233C38.693 39.8086 38.6934 33.4931 38.691 27.1768C38.691 27.1386 38.7102 27.1195 38.7487 27.1195L40.3642 27.1184C40.4082 27.1184 40.4302 27.1402 40.4302 27.184V54.9401C40.4302 54.9509 40.4258 54.9612 40.4179 54.9688C40.41 54.9764 40.3993 54.9807 40.3882 54.9807L31.1001 54.9795C31.0889 54.9795 31.0782 54.9751 31.0704 54.9672C31.0625 54.9594 31.058 54.9488 31.058 54.9377V53.3837C31.058 53.3753 31.0597 53.3671 31.063 53.3594C31.0663 53.3517 31.0711 53.3447 31.0772 53.3389C31.0832 53.3332 31.0904 53.3286 31.0983 53.3257C31.1061 53.3227 31.1145 53.3213 31.1229 53.3216C33.19 53.4052 34.9784 52.9504 36.5122 51.5241Z" fill="#432818"/>
  <path d="M57.5722 53.3204C61.3357 53.3316 65.0987 53.332 68.8614 53.3216C69.9656 53.3185 70.7607 53.258 71.2468 53.1402C74.3336 52.3907 76.4079 49.587 76.4067 46.4778C76.4067 46.2311 76.4075 45.9853 76.4091 45.7402C76.4099 45.6908 76.4347 45.6662 76.4835 45.6662L78.0882 45.665C78.1266 45.665 78.1459 45.6845 78.1459 45.7235V54.9616C78.1459 54.9666 78.1438 54.9715 78.1402 54.9751C78.1366 54.9787 78.1317 54.9807 78.1266 54.9807H48.1845C48.173 54.9807 48.162 54.9761 48.1539 54.9681C48.1458 54.96 48.1412 54.9491 48.1412 54.9377V45.1685C48.1412 45.1574 48.1456 45.1468 48.1535 45.1389C48.1614 45.1311 48.1721 45.1267 48.1833 45.1267H57.4701C57.481 45.1267 57.4914 45.131 57.499 45.1386C57.5067 45.1462 57.511 45.1565 57.511 45.1673V53.2596C57.511 53.3002 57.5314 53.3204 57.5722 53.3204Z" fill="#432818"/>
  <path d="M33.0723 62.6922H36.3165C36.3406 62.6922 36.3645 62.6864 36.386 62.6752C36.4075 62.6639 36.4261 62.6477 36.4402 62.6278C36.4698 62.5848 36.5074 62.5502 36.5531 62.5239C36.5617 62.5189 36.5715 62.5161 36.5816 62.5161C36.5916 62.516 36.6014 62.5186 36.6101 62.5236C36.6188 62.5286 36.626 62.5358 36.631 62.5444C36.6359 62.5531 36.6385 62.5629 36.6383 62.5729L36.6371 63.3678C36.6371 63.5134 36.5871 63.5329 36.487 63.4263L36.427 63.3618C36.4144 63.3482 36.3992 63.3374 36.3823 63.33C36.3653 63.3226 36.347 63.3188 36.3285 63.3188H31.7451C31.7354 63.3187 31.726 63.3154 31.7183 63.3094C31.7107 63.3035 31.7052 63.2952 31.7027 63.2858C31.7003 63.2765 31.701 63.2666 31.7047 63.2577C31.7085 63.2488 31.715 63.2413 31.7235 63.2365L31.8688 63.1553C31.8851 63.1462 31.8988 63.133 31.9083 63.1171C31.9178 63.1012 31.9228 63.0831 31.9228 63.0646V59.7907C31.9229 59.7679 31.9164 59.7456 31.9043 59.7264C31.8922 59.7072 31.8749 59.6918 31.8544 59.6821L31.6982 59.6081C31.6897 59.6043 31.6828 59.5977 31.6786 59.5894C31.6743 59.5811 31.6731 59.5716 31.6751 59.5625C31.677 59.5535 31.6821 59.5453 31.6894 59.5395C31.6966 59.5337 31.7057 59.5305 31.715 59.5305C33.2004 59.5297 34.6858 59.5293 36.1711 59.5293C36.2852 59.5293 36.3825 59.4708 36.433 59.3801C36.4395 59.3678 36.45 59.358 36.4629 59.3523C36.4757 59.3467 36.4901 59.3455 36.5037 59.3489C36.5173 59.3524 36.5293 59.3603 36.5378 59.3713C36.5463 59.3824 36.5509 59.396 36.5507 59.41L36.5459 60.2992C36.5458 60.3084 36.543 60.3174 36.5378 60.3251C36.5326 60.3328 36.5252 60.3387 36.5165 60.3422C36.5079 60.3456 36.4984 60.3464 36.4893 60.3445C36.4802 60.3426 36.4719 60.338 36.4654 60.3314L36.3189 60.1846C36.3097 60.1755 36.2988 60.1683 36.2869 60.1634C36.2749 60.1585 36.2621 60.1559 36.2492 60.1559H33.0711C33.0637 60.1559 33.0563 60.1574 33.0495 60.1602C33.0426 60.163 33.0364 60.1672 33.0312 60.1724C33.0259 60.1776 33.0218 60.1838 33.0189 60.1906C33.0161 60.1974 33.0146 60.2047 33.0146 60.212V60.995C33.0146 61.0332 33.0335 61.0523 33.0711 61.0523H35.131C35.1782 61.0523 35.217 61.034 35.2475 60.9974L35.3496 60.8733C35.356 60.8653 35.3647 60.8596 35.3746 60.8568C35.3844 60.854 35.3949 60.8543 35.4045 60.8577C35.4142 60.8612 35.4225 60.8675 35.4284 60.8758C35.4342 60.8842 35.4373 60.8941 35.4373 60.9043L35.4409 61.7075C35.4417 61.8977 35.3944 61.9132 35.2991 61.7541C35.2887 61.7366 35.2555 61.7135 35.1994 61.6849C35.1642 61.6674 35.1254 61.6582 35.0829 61.6574C34.3863 61.6511 33.7129 61.6499 33.0627 61.6538C33.0496 61.6538 33.0371 61.659 33.0279 61.6682C33.0186 61.6774 33.0134 61.6898 33.0134 61.7028L33.0158 62.6373C33.0158 62.6739 33.0347 62.6922 33.0723 62.6922Z" fill="#432818"/>
  <path d="M43.0378 60.218V63.0598C43.0378 63.0788 43.0428 63.0974 43.0523 63.1139C43.0617 63.1304 43.0754 63.1443 43.0918 63.1541L43.2444 63.246C43.2519 63.2504 43.2578 63.2571 43.261 63.2651C43.2642 63.2731 43.2646 63.282 43.2621 63.2904C43.2597 63.2988 43.2545 63.3062 43.2474 63.3116C43.2403 63.3169 43.2316 63.3199 43.2227 63.32L41.8054 63.3176C41.6933 63.3176 41.6845 63.2878 41.779 63.2281C41.8967 63.1541 41.9556 63.065 41.9556 62.9608C41.9508 62.0505 41.9452 61.1398 41.9388 60.2287C41.9388 60.1802 41.9139 60.1559 41.8643 60.1559H40.3005C40.2809 60.1559 40.2616 60.16 40.2437 60.1681C40.2259 60.1761 40.21 60.1878 40.1972 60.2025L40.0675 60.3493C40.0626 60.3551 40.056 60.3591 40.0487 60.361C40.0414 60.3628 40.0336 60.3624 40.0265 60.3597C40.0193 60.3569 40.0131 60.3521 40.0086 60.3458C40.0041 60.3394 40.0016 60.3319 40.0014 60.3242L39.999 59.3789C39.999 59.3224 40.0222 59.3113 40.0687 59.3455C40.1087 59.3749 40.1423 59.4107 40.1696 59.4529C40.1847 59.4763 40.2054 59.4956 40.23 59.509C40.2546 59.5223 40.2821 59.5293 40.3101 59.5293H44.6689C44.7121 59.5293 44.7485 59.5142 44.7782 59.484L44.9067 59.3527C44.9132 59.346 44.9215 59.3414 44.9306 59.3395C44.9397 59.3376 44.9492 59.3384 44.9578 59.3419C44.9665 59.3453 44.9739 59.3513 44.9791 59.3589C44.9843 59.3666 44.9871 59.3756 44.9872 59.3849L44.986 60.2777C44.9859 60.2904 44.9816 60.3028 44.9738 60.313C44.966 60.3231 44.9551 60.3304 44.9427 60.3338C44.9303 60.3372 44.9172 60.3364 44.9052 60.3317C44.8933 60.3269 44.8833 60.3184 44.8767 60.3075C44.7505 60.0903 44.4911 60.1631 44.2977 60.1583C43.8966 60.1496 43.495 60.1504 43.093 60.1607C43.0562 60.1615 43.0378 60.1806 43.0378 60.218Z" fill="#432818"/>
  <path d="M49.9441 60.1559H48.3743C48.3238 60.1559 48.2818 60.175 48.2481 60.2132L48.1412 60.3326C48.1351 60.3394 48.1269 60.3443 48.1179 60.3466C48.1089 60.3489 48.0995 60.3484 48.0909 60.3453C48.0823 60.3422 48.0749 60.3365 48.0697 60.3292C48.0645 60.3218 48.0618 60.313 48.062 60.3039L48.0584 59.4422C48.0584 59.3005 48.0996 59.287 48.1821 59.4016C48.3106 59.5794 48.5232 59.5281 48.7202 59.5281C50.0566 59.5305 51.393 59.5309 52.7294 59.5293C52.7639 59.5293 52.7951 59.519 52.8231 59.4983C52.8768 59.4609 52.92 59.4135 52.9528 59.3562C52.9582 59.3463 52.9668 59.3384 52.9772 59.3339C52.9876 59.3294 52.9993 59.3286 53.0103 59.3315C53.0212 59.3344 53.0309 59.3409 53.0377 59.3499C53.0445 59.359 53.048 59.37 53.0477 59.3813L53.0441 60.298C53.0443 60.3079 53.0414 60.3176 53.0357 60.3258C53.0301 60.334 53.022 60.3402 53.0126 60.3437C53.0032 60.3471 52.993 60.3475 52.9834 60.3449C52.9737 60.3422 52.9652 60.3367 52.9588 60.329L52.8471 60.2025C52.8347 60.1879 52.8193 60.1762 52.8019 60.1681C52.7844 60.1601 52.7655 60.1559 52.7463 60.1559H51.1704C51.128 60.1559 51.1068 60.177 51.1068 60.2192V63.0754C51.1068 63.1135 51.1244 63.1406 51.1596 63.1565C51.2197 63.1828 51.2725 63.2186 51.3181 63.2639C51.3225 63.2687 51.3255 63.2746 51.3266 63.2809C51.3277 63.2873 51.3269 63.2938 51.3244 63.2997C51.3219 63.3056 51.3176 63.3107 51.3123 63.3143C51.3069 63.3179 51.3006 63.3199 51.2941 63.32L49.8492 63.3176C49.8386 63.3175 49.8283 63.314 49.82 63.3074C49.8116 63.3009 49.8057 63.2918 49.8031 63.2816C49.8005 63.2714 49.8013 63.2606 49.8056 63.2509C49.8098 63.2412 49.8171 63.2332 49.8264 63.2281L49.9381 63.1661C49.9821 63.1422 50.0041 63.1052 50.0041 63.0551L50.0053 60.2168C50.0053 60.1762 49.9849 60.1559 49.9441 60.1559Z" fill="#432818"/>
  <path d="M57.8978 62.6922H61.1587C61.1814 62.6922 61.2038 62.6874 61.2245 62.6779C61.2452 62.6684 61.2638 62.6546 61.2789 62.6373L61.3461 62.5597C61.3562 62.5485 61.3694 62.5405 61.3841 62.5369C61.3988 62.5332 61.4143 62.534 61.4284 62.5392C61.4425 62.5444 61.4546 62.5537 61.463 62.5659C61.4715 62.5781 61.476 62.5926 61.4758 62.6075V63.3785C61.4758 63.5751 61.4322 63.5886 61.3449 63.4191C61.3041 63.3379 61.2128 63.3013 61.0711 63.3093C60.9742 63.3149 60.9225 63.318 60.9161 63.3188C59.4692 63.3212 58.0223 63.3204 56.5754 63.3164C56.5662 63.3164 56.5574 63.3134 56.5502 63.3079C56.543 63.3023 56.5379 63.2945 56.5357 63.2857C56.5335 63.2769 56.5343 63.2677 56.538 63.2594C56.5417 63.2511 56.5481 63.2443 56.5561 63.2401L56.7027 63.1613C56.7419 63.1406 56.7615 63.108 56.7615 63.0634V59.7871C56.7615 59.7354 56.7379 59.6992 56.6907 59.6785L56.5369 59.6093C56.533 59.6077 56.5295 59.6053 56.5266 59.6022C56.5237 59.5991 56.5215 59.5954 56.5202 59.5914C56.5188 59.5873 56.5183 59.583 56.5187 59.5787C56.5191 59.5743 56.5204 59.5701 56.5225 59.5663C56.5281 59.5552 56.5337 59.5448 56.5393 59.5353C56.5409 59.5321 56.5433 59.5305 56.5465 59.5305L61.0903 59.5293C61.1097 59.5293 61.1289 59.5248 61.1464 59.5164C61.1639 59.5079 61.1792 59.4956 61.1912 59.4804L61.2236 59.4386C61.3341 59.297 61.389 59.3161 61.3882 59.4959L61.3834 60.2991C61.3832 60.3086 61.3802 60.3179 61.3748 60.3257C61.3694 60.3335 61.3617 60.3395 61.3528 60.343C61.3439 60.3464 61.3342 60.3472 61.3249 60.3451C61.3155 60.343 61.3071 60.3383 61.3005 60.3314L61.1756 60.2001C61.1483 60.1706 61.1143 60.1559 61.0735 60.1559H57.8978C57.8761 60.1559 57.8653 60.1667 57.8653 60.1881V61.0189C57.8653 61.0274 57.8687 61.0356 57.8748 61.0416C57.8809 61.0477 57.8892 61.0511 57.8978 61.0511C58.564 61.0535 59.2446 61.0535 59.9396 61.0511C59.9845 61.0503 60.0233 61.0403 60.0561 61.0212C60.1074 60.991 60.1398 60.962 60.1534 60.9341C60.1607 60.9207 60.1723 60.9101 60.1863 60.9038C60.2003 60.8976 60.216 60.8962 60.2309 60.8997C60.2458 60.9032 60.2591 60.9116 60.2688 60.9234C60.2785 60.9352 60.2839 60.9499 60.2843 60.9652L60.2819 61.7684C60.2813 61.7853 60.2747 61.8014 60.2631 61.8138C60.2516 61.8262 60.2359 61.834 60.219 61.8359C60.2021 61.8378 60.1851 61.8336 60.1711 61.824C60.1571 61.8145 60.147 61.8003 60.1426 61.7839C60.1338 61.7457 60.103 61.7131 60.0501 61.6861C60.0125 61.6662 59.9673 61.6562 59.9144 61.6562C59.2218 61.6522 58.5488 61.651 57.8954 61.6526C57.8753 61.6526 57.8653 61.6626 57.8653 61.6825V62.66C57.8653 62.6685 57.8687 62.6767 57.8748 62.6828C57.8809 62.6888 57.8892 62.6922 57.8978 62.6922Z" fill="#432818"/>
  <path d="M78.1867 60.4997C77.6234 60.2013 75.8194 59.7656 75.4002 60.4806C75.3711 60.5302 75.3631 60.5894 75.3779 60.6451C75.3928 60.7008 75.4293 60.7485 75.4794 60.7778C75.6276 60.8637 75.7973 60.9134 75.9887 60.927C76.8859 60.989 77.585 60.9783 78.2216 61.217C78.7765 61.4247 79.2041 61.9463 78.8978 62.5323C78.2384 63.7927 75.5887 63.3845 74.5642 62.9811C74.4777 62.9465 74.4021 62.9572 74.3216 62.9847C74.1911 63.0276 74.1606 62.9902 74.2303 62.8725L74.7083 62.062C74.7121 62.0557 74.7176 62.0505 74.7241 62.047C74.7307 62.0436 74.738 62.0419 74.7455 62.0423C74.7529 62.0426 74.76 62.045 74.7662 62.0491C74.7723 62.0532 74.7773 62.0589 74.7804 62.0656C74.969 62.4487 75.2885 62.5132 75.7377 62.6254C76.1653 62.7316 77.9501 62.9309 77.9273 62.1396C77.9265 62.1203 77.9214 62.1014 77.9123 62.0842C77.9031 62.0671 77.8902 62.0521 77.8744 62.0405C77.4721 61.7481 76.271 61.7708 75.7533 61.7314C75.1491 61.6861 74.3108 61.3375 74.3528 60.6453C74.4321 59.3419 76.6349 59.3873 77.4793 59.5532C77.8652 59.6296 78.2472 59.7239 78.6251 59.8361C78.7348 59.8687 78.8097 59.8723 78.8497 59.8468C78.8628 59.8379 78.8786 59.8339 78.8943 59.8355C78.9101 59.8371 78.9248 59.8441 78.9358 59.8553C78.9469 59.8666 78.9536 59.8814 78.9547 59.8971C78.9559 59.9127 78.9515 59.9283 78.9422 59.9411L78.4353 60.693C78.3993 60.7471 78.3637 60.7467 78.3285 60.6918L78.2312 60.5414C78.2201 60.5242 78.2048 60.5098 78.1867 60.4997Z" fill="#432818"/>
  <path d="M1.6503 60.8315L1.6491 63.0515C1.6491 63.096 1.66792 63.1307 1.70555 63.1553L1.8641 63.2556C1.92976 63.2977 1.92375 63.3188 1.84608 63.3188H0.484037C0.472889 63.3186 0.462129 63.3147 0.453442 63.3078C0.444754 63.3008 0.438628 63.2912 0.436021 63.2804C0.433413 63.2697 0.434471 63.2583 0.43903 63.2482C0.443588 63.2381 0.45139 63.2298 0.461216 63.2246L0.571718 63.1661C0.616559 63.143 0.638979 63.1064 0.638979 63.0563V59.7919C0.639007 59.7724 0.633804 59.7531 0.623893 59.7362C0.613981 59.7192 0.599714 59.7051 0.582527 59.6952L0.514065 59.657C0.36673 59.5727 0.37794 59.5301 0.547695 59.5293H2.28929C2.29918 59.5296 2.30879 59.5329 2.31674 59.5388C2.32469 59.5448 2.33057 59.553 2.33351 59.5623C2.33645 59.5716 2.33631 59.5815 2.33311 59.5906C2.32991 59.5997 2.32382 59.6075 2.31571 59.6129L2.24485 59.6594C2.22766 59.6709 2.21297 59.6857 2.20163 59.7029C2.1903 59.7201 2.18255 59.7394 2.17886 59.7597C2.17516 59.7799 2.17559 59.8007 2.18012 59.8208C2.18464 59.8409 2.19318 59.8599 2.20521 59.8766L3.55765 61.7565C3.56157 61.762 3.56674 61.7665 3.57274 61.7696C3.57874 61.7728 3.58539 61.7745 3.59218 61.7746C3.59896 61.7747 3.60567 61.7732 3.61177 61.7703C3.61788 61.7674 3.6232 61.763 3.62731 61.7577L5.07584 59.8026C5.08234 59.794 5.0869 59.7841 5.08922 59.7736C5.09155 59.7631 5.09157 59.7522 5.08929 59.7417C5.08701 59.7312 5.08249 59.7212 5.07602 59.7126C5.06956 59.704 5.0613 59.6968 5.05181 59.6916L4.89447 59.6021C4.88006 59.5942 4.87445 59.5822 4.87766 59.5663C4.88006 59.5552 4.88486 59.5464 4.89207 59.54C4.89687 59.5369 4.90368 59.5353 4.91249 59.5353C5.52024 59.5241 6.1284 59.5241 6.73696 59.5353C6.82824 59.5369 6.83384 59.5599 6.75377 59.6045L6.60724 59.6845C6.5712 59.7044 6.55319 59.735 6.55319 59.7764V63.0395C6.55319 63.0873 6.5728 63.1247 6.61204 63.1517L6.76098 63.252C6.82744 63.2974 6.82023 63.32 6.73936 63.32L5.26321 63.3188C5.25402 63.3191 5.24511 63.3162 5.23788 63.3107C5.23065 63.3052 5.22552 63.2973 5.22331 63.2884C5.2211 63.2795 5.22194 63.27 5.22568 63.2614C5.22943 63.2529 5.23587 63.2458 5.24399 63.2413L5.35209 63.1828C5.42095 63.1454 5.45538 63.0877 5.45538 63.0097L5.45658 60.8124C5.45658 60.7376 5.43416 60.73 5.38932 60.7897L3.53483 63.2198C3.53092 63.225 3.5258 63.2292 3.51989 63.2321C3.51398 63.235 3.50743 63.2364 3.50078 63.2363C3.49412 63.2362 3.48755 63.2345 3.48157 63.2314C3.47559 63.2284 3.47039 63.224 3.46636 63.2186L1.72357 60.8076C1.67473 60.7408 1.6503 60.7487 1.6503 60.8315Z" fill="#432818"/>
  <path d="M12.9623 60.9783L13.982 59.8611C13.9997 59.842 14.009 59.8169 14.0081 59.7911C14.0072 59.7654 13.9961 59.7412 13.9772 59.7239C13.9276 59.6769 13.8687 59.6471 13.8007 59.6343C13.7774 59.6296 13.7658 59.6152 13.7658 59.5914V59.5568C13.7658 59.5393 13.7746 59.5305 13.7922 59.5305L15.6215 59.5293C15.7793 59.5293 15.7797 59.5591 15.6227 59.6188C15.5086 59.6606 15.3609 59.731 15.266 59.8289C14.671 60.444 14.0825 61.0654 13.5004 61.6932C13.4732 61.7227 13.4595 61.7577 13.4595 61.7983V63.0443C13.4595 63.0841 13.4744 63.1175 13.504 63.1446C13.5496 63.1852 13.6025 63.2138 13.6625 63.2305C13.6809 63.2361 13.6938 63.248 13.701 63.2663C13.7058 63.2775 13.7066 63.2886 13.7034 63.2997C13.7002 63.3125 13.6922 63.3188 13.6793 63.3188H12.1684C12.1589 63.319 12.1496 63.3161 12.1421 63.3104C12.1345 63.3047 12.1291 63.2966 12.1267 63.2875C12.1244 63.2784 12.1252 63.2687 12.129 63.2601C12.1329 63.2515 12.1395 63.2444 12.1479 63.2401L12.3101 63.1529C12.3239 63.1454 12.3356 63.1342 12.3438 63.1206C12.352 63.107 12.3565 63.0914 12.3569 63.0754L12.3605 61.7983C12.3605 61.7545 12.3438 61.7126 12.3137 61.6813C11.7252 61.0519 11.1258 60.4344 10.5156 59.8289C10.4108 59.7254 10.3159 59.661 10.231 59.6355C10.2187 59.6318 10.2081 59.6237 10.2012 59.6128C10.1943 59.602 10.1916 59.5891 10.1935 59.5764C10.1953 59.5637 10.2017 59.5521 10.2115 59.5437C10.2212 59.5352 10.2337 59.5306 10.2466 59.5305L11.8657 59.5293C12.0563 59.5293 12.0739 59.5846 11.9185 59.6952L11.8777 59.725C11.8687 59.7315 11.8612 59.7397 11.8557 59.7491C11.8501 59.7586 11.8466 59.7691 11.8453 59.78C11.8441 59.7909 11.8452 59.802 11.8485 59.8124C11.8517 59.8229 11.8572 59.8326 11.8645 59.8408L12.8698 60.9783C12.9002 61.0125 12.9311 61.0125 12.9623 60.9783Z" fill="#432818"/>
  <path d="M24.7834 62.6922H27.8679C27.886 62.6922 27.904 62.6885 27.9205 62.6813C27.9371 62.6741 27.9519 62.6636 27.964 62.6505L28.0913 62.5168C28.0978 62.5099 28.1063 62.5051 28.1157 62.503C28.125 62.501 28.1347 62.5017 28.1436 62.5052C28.1525 62.5086 28.1602 62.5147 28.1656 62.5225C28.171 62.5303 28.174 62.5395 28.1741 62.549V63.4382C28.1741 63.5392 28.1405 63.5524 28.0733 63.4776L27.982 63.3761C27.9483 63.3379 27.9059 63.3188 27.8547 63.3188H23.4034C23.3956 63.3188 23.388 63.3164 23.3816 63.312C23.3752 63.3076 23.3703 63.3013 23.3676 63.2941C23.3649 63.2868 23.3644 63.2789 23.3663 63.2714C23.3682 63.2639 23.3723 63.2571 23.3782 63.252C23.4158 63.221 23.4586 63.1975 23.5067 63.1816C23.5353 63.1725 23.5603 63.1546 23.578 63.1306C23.5958 63.1065 23.6053 63.0776 23.6052 63.0479V59.7967C23.6052 59.7784 23.601 59.7603 23.5929 59.7438C23.5848 59.7273 23.573 59.7127 23.5583 59.7012C23.5183 59.6709 23.475 59.6487 23.4286 59.6343C23.4006 59.6256 23.3826 59.6156 23.3746 59.6045C23.3657 59.5918 23.3629 59.5762 23.3661 59.5579C23.3678 59.5503 23.372 59.5434 23.3781 59.5384C23.3842 59.5334 23.3919 59.5306 23.3998 59.5305L24.8627 59.5293C24.8739 59.5291 24.8848 59.5329 24.8934 59.54C24.9021 59.5471 24.9078 59.557 24.9097 59.568C24.9116 59.579 24.9095 59.5902 24.9037 59.5998C24.898 59.6093 24.889 59.6165 24.8783 59.62C24.8295 59.6375 24.7846 59.6638 24.7438 59.6988C24.7126 59.725 24.697 59.7589 24.697 59.8002V62.6063C24.697 62.6636 24.7258 62.6922 24.7834 62.6922Z" fill="#432818"/>
  <path d="M66.5769 61.8293V63.0574C66.5769 63.0801 66.5832 63.1023 66.5951 63.1217C66.6069 63.141 66.6239 63.1568 66.6441 63.1673L66.7787 63.2377C66.7873 63.2421 66.7942 63.2493 66.7983 63.2582C66.8023 63.267 66.8032 63.2769 66.8008 63.2863C66.7984 63.2957 66.793 63.304 66.7852 63.3099C66.7775 63.3158 66.768 63.319 66.7582 63.3188H65.2833C65.212 63.3188 65.2056 63.2989 65.2641 63.2592L65.4214 63.1529C65.4575 63.1283 65.4755 63.0941 65.4755 63.0503V59.7979C65.4755 59.7461 65.4526 59.7083 65.407 59.6845L65.2665 59.6117C65.2582 59.6073 65.2516 59.6004 65.2477 59.5919C65.2438 59.5834 65.2429 59.5739 65.2451 59.5648C65.2473 59.5558 65.2525 59.5477 65.2599 59.5419C65.2672 59.5361 65.2763 59.5329 65.2857 59.5329C66.4035 59.5273 67.535 59.5245 68.68 59.5245C69.1652 59.5245 69.8403 59.6248 70.1718 59.9578C70.6114 60.4018 70.5525 61.1704 69.9628 61.4832C69.7097 61.6168 69.4431 61.6988 69.1628 61.729C69.1553 61.7296 69.1481 61.7323 69.1421 61.7368C69.1361 61.7413 69.1315 61.7474 69.1288 61.7545C69.1262 61.7615 69.1256 61.7691 69.1271 61.7764C69.1287 61.7838 69.1323 61.7905 69.1376 61.7959C69.5364 62.2243 70.0108 62.8414 70.4973 63.1589C70.6598 63.2647 70.6438 63.318 70.4492 63.3188H68.9563C68.8498 63.3188 68.8449 63.297 68.9418 63.2532L69.0511 63.2031C69.0647 63.1968 69.0766 63.1876 69.0859 63.176C69.0952 63.1644 69.1016 63.1509 69.1046 63.1365C69.1077 63.122 69.1072 63.1072 69.1034 63.093C69.0995 63.0789 69.0923 63.0659 69.0824 63.0551L67.9533 61.8126C67.9412 61.7991 67.9265 61.7882 67.9101 61.7808C67.8938 61.7734 67.8762 61.7696 67.8584 61.7696H66.6357C66.5965 61.7696 66.5769 61.7895 66.5769 61.8293ZM66.5769 60.1965V61.106C66.5769 61.1168 66.5812 61.1271 66.5888 61.1347C66.5965 61.1423 66.6069 61.1466 66.6177 61.1466H68.6884C68.8681 61.1466 69.0404 61.0963 69.1674 61.0067C69.2945 60.9172 69.3658 60.7958 69.3658 60.6691V60.6333C69.3658 60.5067 69.2945 60.3853 69.1674 60.2958C69.0404 60.2062 68.8681 60.1559 68.6884 60.1559H66.6177C66.6069 60.1559 66.5965 60.1602 66.5888 60.1678C66.5812 60.1754 66.5769 60.1857 66.5769 60.1965Z" fill="#432818"/>
  <path d="M19.7641 61.3901C19.7737 61.3598 19.7929 61.3364 19.8217 61.3196C19.9018 61.2735 19.941 61.2966 19.9394 61.3889L19.9298 62.2088C19.9295 62.2196 19.9259 62.2301 19.9195 62.2388C19.913 62.2475 19.9041 62.2541 19.8939 62.2577C19.8836 62.2613 19.8725 62.2618 19.862 62.259C19.8515 62.2563 19.8421 62.2504 19.835 62.2423L19.7257 62.1122C19.7 62.0819 19.6672 62.0668 19.6272 62.0668L18.5618 62.0656C18.5423 62.0656 18.5229 62.0699 18.5051 62.0781C18.4872 62.0863 18.4713 62.0984 18.4585 62.1134L18.3396 62.2494C18.3339 62.2562 18.3263 62.261 18.3178 62.2632C18.3093 62.2655 18.3002 62.265 18.2919 62.2619C18.2835 62.2588 18.2763 62.2531 18.271 62.2458C18.2658 62.2385 18.2629 62.2297 18.2627 62.2208L18.2615 61.3149C18.2613 61.3059 18.2639 61.2972 18.2688 61.2897C18.2738 61.2823 18.2809 61.2765 18.2892 61.2731C18.2975 61.2697 18.3067 61.269 18.3155 61.2709C18.3243 61.2728 18.3322 61.2773 18.3384 61.2838L18.4729 61.4271C18.4854 61.4406 18.5008 61.4513 18.5179 61.4585C18.5351 61.4657 18.5538 61.4692 18.5726 61.4688L19.668 61.4629C19.6899 61.4625 19.711 61.4552 19.7283 61.4421C19.7456 61.429 19.7582 61.4107 19.7641 61.3901Z" fill="#432818"/>
</svg>