<svg xmlns="http://www.w3.org/2000/svg" width="279" height="17" viewBox="0 0 279 17" fill="none">
  <path d="M2 1.70557C15.7548 1.70557 15.7548 15.6492 29.5097 15.6492C43.2645 15.6492 43.2645 1.70557 57.0194 1.70557C70.7742 1.70557 70.7742 15.6492 84.4968 15.6492C98.2521 15.6492 98.2521 1.70557 111.974 1.70557C125.729 1.70557 125.729 15.6492 139.452 15.6492C153.207 15.6492 153.207 1.70557 166.961 1.70557C180.716 1.70557 180.716 15.6492 194.471 15.6492C208.225 15.6492 208.225 1.70557 221.98 1.70557C235.736 1.70557 235.736 15.6492 249.491 15.6492C263.245 15.6492 263.245 1.70557 277 1.70557" stroke="#432818" stroke-width="2.32394" stroke-miterlimit="10" stroke-linecap="round"/>
</svg>