<svg xmlns="http://www.w3.org/2000/svg" width="38" height="24" viewBox="0 0 38 24" fill="none">
  <g clip-path="url(#clip0_162_210)">
    <path opacity="0.07" d="M34.7896 0.111755H3.30183C1.62904 0.111755 0.349854 1.39094 0.349854 3.06373V20.7756C0.349854 22.4484 1.72744 23.7276 3.30183 23.7276H34.7896C36.4624 23.7276 37.7416 22.4484 37.7416 20.7756V3.06373C37.7416 1.39094 36.364 0.111755 34.7896 0.111755Z" fill="black"/>
    <path d="M34.79 1.0957C35.8723 1.0957 36.7579 1.9813 36.7579 3.06369V20.7755C36.7579 21.8579 35.8723 22.7435 34.79 22.7435H3.30221C2.21982 22.7435 1.33423 21.8579 1.33423 20.7755V3.06369C1.33423 1.9813 2.21982 1.0957 3.30221 1.0957H34.79Z" fill="white"/>
    <path d="M15.1128 18.8075C18.9169 18.8075 22.0007 15.7237 22.0007 11.9196C22.0007 8.11545 18.9169 5.03162 15.1128 5.03162C11.3087 5.03162 8.22485 8.11545 8.22485 11.9196C8.22485 15.7237 11.3087 18.8075 15.1128 18.8075Z" fill="#EB001B"/>
    <path d="M22.98 18.8075C26.7841 18.8075 29.8679 15.7237 29.8679 11.9196C29.8679 8.11545 26.7841 5.03162 22.98 5.03162C19.1759 5.03162 16.092 8.11545 16.092 11.9196C16.092 15.7237 19.1759 18.8075 22.98 18.8075Z" fill="#F79E1B"/>
    <path d="M21.996 11.9195C21.996 9.5579 20.8152 7.49152 19.044 6.31073C17.2728 7.58992 16.092 9.6563 16.092 11.9195C16.092 14.1827 17.2728 16.3474 19.044 17.5282C20.8152 16.3474 21.996 14.2811 21.996 11.9195Z" fill="#FF5F00"/>
  </g>
  <defs>
    <clipPath id="clip0_162_210">
      <rect width="37.3917" height="23.6158" fill="white" transform="translate(0.349854 0.111694)"/>
    </clipPath>
  </defs>
</svg>  