<svg xmlns="http://www.w3.org/2000/svg" width="69" height="95" viewBox="0 0 69 95" fill="none">
  <path fill-rule="evenodd" clip-rule="evenodd" d="M21.6863 53.8428C19.4188 55.0796 16.7977 55.4515 13.8552 54.5906C4.75289 51.927 1.07071 44.7991 0.573556 36.3496C-0.151959 24.0118 6.01593 8.82852 11.529 1.28235C11.7897 0.924644 12.291 0.847824 12.6467 1.10853C13.0044 1.36922 13.0831 1.87043 12.8224 2.22813C7.47098 9.552 1.46886 24.2826 2.17215 36.2566C2.62888 44.015 5.94524 50.6073 14.3058 53.0526C16.7936 53.7822 19.0045 53.4609 20.9244 52.4201C20.2636 51.155 19.6471 49.8878 19.0772 48.6207C17.505 45.1225 15.1546 35.4099 16.0317 28.2679C16.6623 23.1448 18.9479 19.3474 23.9437 19.4808C26.7204 19.5556 28.7292 21.2855 29.9579 24.038C31.6494 27.8212 31.8394 33.6173 30.6491 39.1708C29.6588 43.7947 27.7188 48.2428 24.9663 51.2277C24.36 51.8825 23.7173 52.4706 23.0362 52.9758C32.5346 70.3478 50.1794 86.5921 68.2991 93.443C68.7114 93.6007 68.9215 94.0614 68.7639 94.4757C68.6083 94.89 68.1455 95.0982 67.7332 94.9426C49.3185 87.9784 31.3807 71.4977 21.6863 53.8428ZM22.2703 51.5389C21.6519 50.3486 21.0739 49.1563 20.5384 47.9639C19.0328 44.6112 16.7814 35.3068 17.6221 28.4639C18.1375 24.2644 19.8068 20.9723 23.9012 21.0814C26.0515 21.14 27.5429 22.5607 28.4968 24.6908C29.5436 27.0351 29.9438 30.21 29.7761 33.5951C29.5214 38.7343 27.9512 44.3565 25.2189 48.3357C24.3539 49.5968 23.3697 50.6901 22.2703 51.5389Z" fill="#8D5A3B"/>
  <path fill-rule="evenodd" clip-rule="evenodd" d="M53.9814 67.2283C55.5941 76.6459 61.7498 86.6738 68.3846 93.6177C68.6897 93.937 68.6776 94.4443 68.3583 94.7495C68.039 95.0546 67.5317 95.0445 67.2266 94.7252C60.3837 87.565 54.0662 77.2077 52.403 67.4992C52.3282 67.0647 52.6213 66.6504 53.0578 66.5756C53.4923 66.5008 53.9066 66.7938 53.9814 67.2283Z" fill="#8D5A3B"/>
  <path fill-rule="evenodd" clip-rule="evenodd" d="M67.1234 94.8937C60.2159 90.9489 49.6201 90.4032 41.8961 92.4019C41.4676 92.5131 41.0291 92.2564 40.92 91.828C40.8088 91.3995 41.0654 90.963 41.4939 90.8519C49.5857 88.7582 60.6806 89.3705 67.9176 93.5033C68.3016 93.7216 68.435 94.2127 68.2168 94.5967C67.9965 94.9807 67.5074 95.114 67.1234 94.8937Z" fill="#8D5A3B"/>
</svg>