<svg width="53" height="52" viewBox="0 0 53 52" fill="none" xmlns="http://www.w3.org/2000/svg">
<g id="Group 19">
<circle id="Ellipse 10" cx="26.6021" cy="26.0405" r="25.7434" fill="#432818"/>
<g id="evaCarFill0">
<g id="evaCarFill1">
<path id="Vector" d="M16.4238 17.2971C15.7939 17.2971 15.1898 17.5473 14.7444 17.9927C14.299 18.4381 14.0488 19.0422 14.0488 19.6721V32.7346H16.4238C16.4238 33.6795 16.7991 34.5856 17.4672 35.2537C18.1353 35.9218 19.0414 36.2971 19.9863 36.2971C20.9311 36.2971 21.8372 35.9218 22.5053 35.2537C23.1734 34.5856 23.5488 33.6795 23.5488 32.7346H30.6738C30.6738 33.6795 31.0491 34.5856 31.7172 35.2537C32.3853 35.9218 33.2914 36.2971 34.2363 36.2971C35.1811 36.2971 36.0872 35.9218 36.7553 35.2537C37.4234 34.5856 37.7988 33.6795 37.7988 32.7346H40.1738V26.7971L36.6113 22.0471H33.0488V17.2971M24.7363 19.6721L29.4863 24.4221L24.7363 29.1721V25.6096H17.6113V23.2346H24.7363M33.0488 23.8284H36.0175L38.3569 26.7971H33.0488M19.9863 30.9534C20.4587 30.9534 20.9118 31.141 21.2458 31.4751C21.5799 31.8091 21.7675 32.2622 21.7675 32.7346C21.7675 33.207 21.5799 33.6601 21.2458 33.9942C20.9118 34.3282 20.4587 34.5159 19.9863 34.5159C19.5139 34.5159 19.0608 34.3282 18.7267 33.9942C18.3927 33.6601 18.205 33.207 18.205 32.7346C18.205 32.2622 18.3927 31.8091 18.7267 31.4751C19.0608 31.141 19.5139 30.9534 19.9863 30.9534ZM34.2363 30.9534C34.7087 30.9534 35.1618 31.141 35.4958 31.4751C35.8298 31.8091 36.0175 32.2622 36.0175 32.7346C36.0175 33.207 35.8298 33.6601 35.4958 33.9942C35.1618 34.3282 34.7087 34.5159 34.2363 34.5159C33.7639 34.5159 33.3108 34.3282 32.9767 33.9942C32.6427 33.6601 32.455 33.207 32.455 32.7346C32.455 32.2622 32.6427 31.8091 32.9767 31.4751C33.3108 31.141 33.7639 30.9534 34.2363 30.9534Z" fill="white"/>
</g>
</g>
</g>
</svg>
