<svg width="52" height="52" viewBox="0 0 52 52" fill="none" xmlns="http://www.w3.org/2000/svg">
<g id="Group 19">
<circle id="Ellipse 10" cx="25.7921" cy="26.0405" r="25.7434" fill="#432818"/>
<path id="Vector" d="M35.5611 25.2829C36.3445 24.7134 35.9416 23.4741 34.973 23.4741H29.6764C29.24 23.4741 28.854 23.1911 28.7227 22.7749L27.0025 17.3208C26.7084 16.3886 25.3891 16.3886 25.0951 17.3208L23.3748 22.7749C23.2436 23.1911 22.8576 23.4741 22.4211 23.4741H17.1245C16.156 23.4741 15.7531 24.7134 16.5364 25.2829L21.1928 28.6687C21.559 28.9349 21.7006 29.4139 21.5381 29.8365L19.4984 35.1395C19.1408 36.0694 20.2142 36.8932 21.0199 36.3072L25.4606 33.0776C25.8112 32.8226 26.2863 32.8226 26.6369 33.0776L31.0776 36.3072C31.8833 36.8932 32.9568 36.0694 32.5991 35.1395L30.5594 29.8365C30.3969 29.4139 30.5385 28.9349 30.9047 28.6687L35.5611 25.2829Z" fill="white"/>
</g>
</svg>
