<svg width="52" height="52" viewBox="0 0 52 52" fill="none" xmlns="http://www.w3.org/2000/svg">
<g id="Group 19">
<circle id="Ellipse 10" cx="25.9471" cy="26.0405" r="25.7434" fill="#432818"/>
<path id="Vector" d="M39.2441 18.2956L26.5089 11.3553C26.438 11.3171 26.3589 11.2971 26.2787 11.2971C26.1984 11.2971 26.1193 11.3171 26.0485 11.3553L13.3133 18.2956C13.2341 18.3371 13.1677 18.3996 13.1211 18.4765C13.0745 18.5533 13.0495 18.6416 13.0488 18.7318V32.6124C13.049 32.7021 13.0733 32.79 13.119 32.8668C13.1647 32.9436 13.2302 33.0065 13.3084 33.0486L26.0436 39.9889C26.1144 40.0271 26.1935 40.0471 26.2738 40.0471C26.354 40.0471 26.4331 40.0271 26.504 39.9889L39.2392 33.0486C39.3174 33.0065 39.3828 32.9436 39.4285 32.8668C39.4743 32.79 39.4985 32.7021 39.4988 32.6124V18.7318C39.499 18.6426 39.4755 18.555 39.4306 18.4783C39.3858 18.4015 39.3214 18.3384 39.2441 18.2956ZM26.2738 12.3567L37.9803 18.7318L34.5516 20.6007L23.2516 14.0025L26.2738 12.3567ZM14.5672 18.7318L18.2555 16.7489L29.5506 23.3223L26.2738 25.107L14.5672 18.7318ZM22.2377 14.5528L33.5377 21.151L30.5645 22.772L19.2694 16.1689L22.2377 14.5528ZM31.216 23.5404L33.8806 22.0929V25.7911L32.852 24.7599C32.7948 24.7025 32.7246 24.6602 32.6474 24.6368C32.5702 24.6134 32.4885 24.6096 32.4096 24.6257C32.3306 24.642 32.2568 24.6776 32.1947 24.7295C32.1326 24.7815 32.0841 24.8481 32.0536 24.9235L31.216 26.966V23.5404ZM14.0284 19.5597L25.784 25.9695V38.7248L14.0284 32.3149V19.5597ZM26.7636 38.7248V25.9695L30.2364 24.0758V29.4595C30.2421 29.5705 30.2844 29.6764 30.3567 29.7601C30.4289 29.8438 30.5269 29.9005 30.6348 29.9211C30.7427 29.9417 30.8544 29.925 30.9517 29.8736C31.0492 29.8222 31.1267 29.7393 31.1719 29.638L32.6707 25.9745L34.0128 27.3229C34.0814 27.3928 34.1689 27.4405 34.2643 27.4599C34.3597 27.4792 34.4586 27.4694 34.5485 27.4317C34.6383 27.3939 34.715 27.3299 34.7688 27.2478C34.8226 27.1658 34.851 27.0694 34.8504 26.9709V21.5575L38.5142 19.5746V32.3149L26.7636 38.7248Z" fill="white"/>
</g>
</svg>
