<svg xmlns="http://www.w3.org/2000/svg" width="144" height="145" viewBox="0 0 144 145" fill="none">
  <path d="M37.4028 124.215C35.676 124.212 33.9798 123.759 32.4809 122.901C29.1059 120.989 27.0078 117.276 27.0078 113.246V31.6836C27.0078 27.642 29.1059 23.9408 32.4809 22.0283C34.0154 21.1464 35.7587 20.6929 37.5284 20.7151C39.2981 20.7374 41.0294 21.2346 42.5413 22.1549L112.249 63.8811C113.702 64.792 114.899 66.057 115.73 67.5574C116.56 69.0578 116.995 70.7445 116.995 72.4592C116.995 74.174 116.56 75.8606 115.73 77.361C114.899 78.8614 113.702 80.1264 112.249 81.0374L42.53 122.775C40.9828 123.71 39.2107 124.208 37.4028 124.215Z" fill="white"/>
</svg>