<svg xmlns="http://www.w3.org/2000/svg" width="30" height="29" viewBox="0 0 30 29" fill="none">
  <path d="M29.2672 14.2388C29.2672 18.0152 27.767 21.6369 25.0967 24.3072C22.4264 26.9775 18.8047 28.4776 15.0284 28.4776C11.252 28.4776 7.63029 26.9775 4.96 24.3072C2.28971 21.6369 0.789551 18.0152 0.789551 14.2388C0.789551 10.4624 2.28971 6.84074 4.96 4.17045C7.63029 1.50016 11.252 0 15.0284 0C18.8047 0 22.4264 1.50016 25.0967 4.17045C27.767 6.84074 29.2672 10.4624 29.2672 14.2388ZM22.4863 7.3977C22.8117 7.47108 22.9162 7.63307 22.7999 7.88368C22.5188 8.48735 22.2454 9.03563 21.9795 9.52854C21.8189 9.8276 21.8888 10.0574 22.1893 10.218L22.964 10.6293C23.2796 10.7968 23.5019 10.7144 23.6306 10.3821C23.7635 10.0374 24.2225 8.89095 24.5797 8.6085C24.6194 8.57686 24.6655 8.55431 24.7148 8.54243C24.7641 8.53054 24.8154 8.52962 24.8651 8.53972C24.9148 8.54982 24.9617 8.57069 25.0025 8.60088C25.0432 8.63106 25.0769 8.66982 25.101 8.71442C26.2869 10.8909 25.0906 13.4371 22.4717 13.4475C22.3958 13.4482 22.321 13.467 22.2535 13.5024C22.186 13.5377 22.1277 13.5887 22.0834 13.6511L19.4229 17.3831C19.3814 17.4399 19.3856 17.4932 19.4354 17.5431L24.478 22.6043C24.4971 22.6236 24.5201 22.6388 24.5454 22.6487C24.5708 22.6586 24.5979 22.6631 24.6251 22.6619C24.6523 22.6608 24.6789 22.6539 24.7033 22.6419C24.7277 22.6298 24.7492 22.6128 24.7667 22.5919C30.0128 16.2824 28.3326 6.95118 21.155 2.95534C16.4406 0.328141 10.6275 1.15057 6.60054 4.56697C6.58948 4.57607 6.58047 4.5874 6.57409 4.60022C6.56771 4.61304 6.5641 4.62707 6.56352 4.64138C6.56293 4.65569 6.56537 4.66996 6.57068 4.68327C6.57598 4.69657 6.58404 4.7086 6.59431 4.71858L12.4925 10.6085C12.5576 10.6722 12.6192 10.6694 12.6774 10.6002C14.3084 8.66042 15.9574 6.7165 17.6244 4.76842C17.9525 4.38628 18.9744 3.56801 19.4479 4.16614C19.7968 4.6085 19.2713 5.57008 18.966 5.92938C17.2713 7.91345 15.5739 9.89406 13.8736 11.8712C13.8293 11.9224 13.8314 11.9716 13.8799 12.0187L16.9723 15.0571C16.9758 15.0602 16.9799 15.0625 16.9843 15.064C16.9887 15.0655 16.9933 15.066 16.9978 15.0656C17.0023 15.0652 17.0066 15.0639 17.0104 15.0617C17.0143 15.0595 17.0175 15.0565 17.02 15.0529C17.8092 14.0367 18.6178 13.0322 19.4458 12.0394C19.6549 11.7888 19.7324 11.5514 19.6784 11.3271C19.209 9.41016 20.3098 7.53893 22.3658 7.38939C22.4058 7.38663 22.4463 7.38943 22.4863 7.3977ZM18.2121 5.20871L17.4873 6.02283C17.4839 6.02677 17.4813 6.03135 17.4796 6.03631C17.4779 6.04128 17.4773 6.04652 17.4777 6.05174C17.4781 6.05696 17.4795 6.06205 17.4819 6.06671C17.4842 6.07137 17.4875 6.07552 17.4915 6.07891L17.504 6.08929C17.5571 6.13612 17.6278 6.15869 17.7006 6.15207C17.7734 6.14546 17.8423 6.11019 17.8923 6.05399L18.2911 5.60746C18.3412 5.55118 18.3683 5.47845 18.3664 5.40524C18.3644 5.33203 18.3336 5.26434 18.2807 5.21702L18.2682 5.20663C18.2644 5.20306 18.2599 5.20028 18.2551 5.19845C18.2502 5.19662 18.245 5.19578 18.2398 5.19597C18.2345 5.19616 18.2294 5.19739 18.2247 5.19958C18.2199 5.20176 18.2157 5.20487 18.2121 5.20871ZM4.31187 18.8141C4.28556 18.5261 4.37902 18.2575 4.59224 18.0083C6.06957 16.2748 7.54482 14.5386 9.01799 12.7996C9.38559 12.3655 9.67427 12.191 10.2267 12.2222C10.2785 12.2253 10.3303 12.2154 10.3774 12.1936C10.4245 12.1717 10.4654 12.1385 10.4965 12.0969C10.5276 12.0553 10.5479 12.0067 10.5555 11.9553C10.5632 11.904 10.5579 11.8515 10.5403 11.8027C10.4351 11.5147 10.4593 11.2482 10.613 11.0031C10.6423 10.956 10.655 10.9005 10.649 10.8458C10.6429 10.7911 10.6185 10.7404 10.5798 10.702L5.60366 5.75077C5.58877 5.73612 5.57101 5.72471 5.5515 5.71725C5.53199 5.70979 5.51115 5.70645 5.49028 5.70742C5.46942 5.7084 5.44898 5.71367 5.43025 5.72292C5.41152 5.73216 5.3949 5.74518 5.38144 5.76115C-1.55312 13.9127 3.6099 26.5109 14.4053 27.0218C17.5268 27.1692 21.1883 26.1142 23.5372 23.8234C23.5485 23.8126 23.5575 23.7997 23.5638 23.7853C23.5701 23.771 23.5734 23.7557 23.5736 23.7401C23.5738 23.7246 23.5708 23.7093 23.5649 23.6951C23.559 23.6808 23.5503 23.668 23.5392 23.6573L18.5798 18.7497C18.5258 18.6971 18.4766 18.7019 18.4323 18.7642C17.135 20.6071 15.8189 22.4589 14.4842 24.3198C13.9955 25.0038 13.7289 25.3679 13.6846 25.4122C12.8954 26.2035 11.3503 25.9584 10.7937 25.0758C10.2648 24.2367 10.3361 23.3997 11.0076 22.5649C12.6788 20.4866 14.3437 18.4077 16.0024 16.3281C16.0234 16.3019 16.0341 16.269 16.0326 16.2357C16.0311 16.2023 16.0174 16.1709 15.9941 16.1474L13.9754 14.1204C13.9228 14.0678 13.8591 14.0401 13.7843 14.0374L12.9868 14.0166C12.9245 14.0152 12.8844 14.0443 12.8664 14.1038C12.7127 14.6085 12.9349 15.0425 12.5818 15.4621C11.0574 17.2772 9.52335 19.082 7.97957 20.8764C7.52959 21.397 7.02284 21.4565 6.45932 21.055C5.89027 20.6479 4.3804 19.5347 4.31187 18.8141ZM17.3109 6.74474C17.3305 6.72171 17.3403 6.6918 17.3379 6.6616C17.3355 6.6314 17.3212 6.60338 17.2982 6.5837L17.235 6.52975C17.212 6.51007 17.1821 6.50035 17.1519 6.50273C17.1217 6.50511 17.0937 6.51938 17.074 6.54242L13.1571 11.1285C13.1374 11.1516 13.1277 11.1815 13.13 11.2117C13.1324 11.2419 13.1467 11.2699 13.1697 11.2896L13.2329 11.3435C13.2559 11.3632 13.2858 11.3729 13.3161 11.3705C13.3463 11.3682 13.3743 11.3539 13.3939 11.3309L17.3109 6.74474ZM21.479 13.2378C22.0668 12.4257 23.4375 13.0031 24.3035 11.9148C24.8047 11.2849 24.975 10.5656 24.8144 9.75699C24.7895 9.63099 24.7507 9.62684 24.6981 9.74453L24.0522 11.1568C24.0288 11.2087 23.9924 11.2536 23.9465 11.2872C23.9006 11.3207 23.8468 11.3416 23.7905 11.3478C22.867 11.4489 22.0827 11.1637 21.4375 10.4922C21.1405 10.1827 20.9681 9.96467 21.1696 9.52023C21.3745 9.07025 21.6147 8.63411 21.8902 8.21182C21.9359 8.14259 21.9214 8.12598 21.8466 8.16198C20.6074 8.75318 20.0903 9.70922 20.2952 11.0301C20.4115 11.7694 20.3451 12.0207 19.911 12.567C19.0997 13.586 18.3042 14.5787 17.5247 15.5451C17.5141 15.5587 17.5089 15.5757 17.51 15.5926C17.5112 15.6095 17.5186 15.6252 17.5309 15.6365L18.8227 16.8805C18.8518 16.9082 18.8774 16.9062 18.8996 16.8743C19.7414 15.6628 20.6012 14.4506 21.479 13.2378ZM12.5356 12.7532C12.5459 12.7424 12.5514 12.728 12.5511 12.7131C12.5507 12.6983 12.5444 12.6842 12.5337 12.6739L11.2072 11.4107C11.2018 11.4056 11.1955 11.4016 11.1887 11.399C11.1818 11.3963 11.1745 11.3951 11.1671 11.3952C11.1597 11.3954 11.1525 11.397 11.1458 11.4C11.139 11.403 11.1329 11.4073 11.1279 11.4126L11.1078 11.4337C11.0976 11.4445 11.092 11.4589 11.0924 11.4737C11.0927 11.4886 11.099 11.5027 11.1098 11.513L12.4363 12.7762C12.4416 12.7813 12.4479 12.7852 12.4548 12.7879C12.4616 12.7905 12.469 12.7918 12.4763 12.7916C12.4837 12.7915 12.4909 12.7898 12.4977 12.7868C12.5044 12.7839 12.5105 12.7796 12.5156 12.7742L12.5356 12.7532ZM11.0865 12.5067C10.6172 12.8494 10.4406 12.9076 9.87364 13.028C9.80165 13.0446 9.74142 13.0813 9.69296 13.1381L4.94738 18.7144C4.93836 18.725 4.93152 18.7373 4.92726 18.7506C4.923 18.7639 4.92141 18.7779 4.92257 18.7917C4.92372 18.8056 4.92761 18.8192 4.93401 18.8316C4.94041 18.8439 4.94918 18.8549 4.95984 18.8639L6.95153 20.5441C6.97885 20.5671 7.01042 20.5846 7.04441 20.5955C7.07841 20.6064 7.11417 20.6105 7.14966 20.6076C7.18515 20.6047 7.21967 20.5949 7.25124 20.5786C7.28281 20.5624 7.31082 20.5401 7.33367 20.5129L11.9546 15.0965C12.0363 15.0001 12.0799 14.8767 12.0772 14.7497C12.0702 14.3731 12.1651 14.0242 12.3617 13.703C12.3889 13.659 12.3995 13.6066 12.3915 13.5553C12.3835 13.5039 12.3575 13.4569 12.3181 13.4226L11.2506 12.513C11.198 12.4686 11.1433 12.4666 11.0865 12.5067ZM17.9422 18.1993C17.954 18.1824 17.9594 18.1619 17.9575 18.1414C17.9556 18.1208 17.9465 18.1016 17.9318 18.0872L16.6441 16.8224C16.6361 16.8142 16.6264 16.8079 16.6156 16.8039C16.6048 16.7998 16.5933 16.7982 16.5817 16.7989C16.5701 16.7997 16.5588 16.803 16.5484 16.8084C16.5381 16.8139 16.5289 16.8215 16.5216 16.8307C14.8421 18.9518 13.1557 21.0827 11.4624 23.2232C10.9764 23.8366 11.0152 24.3842 11.5787 24.866C12.4178 25.5867 13.0574 25.0737 13.6016 24.3115C14.9197 22.4631 16.3665 20.4257 17.9422 18.1993Z" fill="white"/>
</svg>