<svg xmlns="http://www.w3.org/2000/svg" width="28" height="28" viewBox="0 0 28 28" fill="none">
  <g clip-path="url(#clip0_221_1238)">
    <path d="M26.4034 4.02C25.3356 4.77322 24.1533 5.34931 22.9021 5.72608C22.2305 4.9539 21.338 4.40659 20.3452 4.15819C19.3524 3.90979 18.3073 3.97227 17.3512 4.33719C16.3952 4.70211 15.5742 5.35186 14.9994 6.19857C14.4246 7.04527 14.1238 8.04807 14.1375 9.07134V10.1864C12.1779 10.2372 10.2361 9.80263 8.48511 8.9213C6.73413 8.03998 5.22829 6.73929 4.10169 5.13509C4.10169 5.13509 -0.358652 15.1709 9.67713 19.6312C7.38064 21.1901 4.64492 21.9717 1.87152 21.8614C11.9073 27.4368 24.1733 21.8614 24.1733 9.03789C24.1722 8.72729 24.1424 8.41745 24.084 8.11237C25.2221 6.99003 26.0252 5.573 26.4034 4.02V4.02Z" stroke="white" stroke-width="2.23017" stroke-linecap="round" stroke-linejoin="round"/>
  </g>
  <defs>
    <clipPath id="clip0_221_1238">
      <rect width="26.7621" height="26.7621" fill="white" transform="translate(0.754333 0.675293)"/>
    </clipPath>
  </defs>
</svg>