<svg xmlns="http://www.w3.org/2000/svg" width="38" height="24" viewBox="0 0 38 24" fill="none">
  <g clip-path="url(#clip0_162_206)">
    <path opacity="0.07" d="M34.51 0.111694H3.02229C1.3495 0.111694 0.0703125 1.39088 0.0703125 3.06367V20.7755C0.0703125 22.4483 1.4479 23.7275 3.02229 23.7275H34.51C36.1828 23.7275 37.462 22.4483 37.462 20.7755V3.06367C37.462 1.39088 36.0844 0.111694 34.51 0.111694Z" fill="black"/>
    <path d="M34.5104 1.09583C35.5928 1.09583 36.4784 1.98142 36.4784 3.06381V20.7757C36.4784 21.8581 35.5928 22.7436 34.5104 22.7436H3.02267C1.94028 22.7436 1.05469 21.8581 1.05469 20.7757V3.06381C1.05469 1.98142 1.94028 1.09583 3.02267 1.09583H34.5104Z" fill="white"/>
    <path d="M27.9153 10.05H27.6201C27.2265 11.034 26.9313 11.526 26.6361 13.002H28.5057C28.2105 11.526 28.2105 10.8372 27.9153 10.05ZM30.7689 15.8556H29.0961C28.9977 15.8556 28.9977 15.8556 28.8993 15.7572L28.7025 14.8716L28.6041 14.6748H26.2425C26.1441 14.6748 26.0457 14.6748 26.0457 14.8716L25.7505 15.7572C25.7505 15.8556 25.6521 15.8556 25.6521 15.8556H23.5857L23.7825 15.3636L26.6361 8.67244C26.6361 8.18044 26.9313 7.98364 27.4233 7.98364H28.8993C28.9977 7.98364 29.0961 7.98364 29.0961 8.18044L30.4737 14.5764C30.5721 14.97 30.6705 15.2652 30.6705 15.6588C30.7689 15.7572 30.7689 15.7572 30.7689 15.8556ZM17.5834 15.5604L17.977 13.7892C18.0754 13.7892 18.1738 13.8876 18.1738 13.8876C18.8626 14.1828 19.5514 14.3796 20.2402 14.2812C20.437 14.2812 20.7322 14.1828 20.929 14.0844C21.4209 13.8876 21.4209 13.3956 21.0274 13.002C20.8306 12.8052 20.5354 12.7068 20.2402 12.51C19.8466 12.3132 19.453 12.1164 19.1578 11.8212C17.977 10.8372 18.3706 9.45963 19.0594 8.77084C19.6498 8.37724 19.945 7.98364 20.7322 7.98364C21.9129 7.98364 23.1921 7.98364 23.7825 8.18044H23.8809C23.7825 8.77084 23.6841 9.26283 23.4873 9.85323C22.9953 9.65643 22.5033 9.45963 22.0113 9.45963C21.7161 9.45963 21.4209 9.45963 21.1257 9.55803C20.929 9.55803 20.8306 9.65643 20.7322 9.75483C20.5354 9.95163 20.5354 10.2468 20.7322 10.4436L21.2241 10.8372C21.6177 11.034 22.0113 11.2308 22.3065 11.4276C22.7985 11.7228 23.2905 12.2148 23.3889 12.8052C23.5857 13.6908 23.2905 14.478 22.5033 15.0684C22.0113 15.462 21.8145 15.6588 21.1257 15.6588C19.7482 15.6588 18.6658 15.7572 17.7802 15.462C17.6818 15.6588 17.6818 15.6588 17.5834 15.5604ZM14.1394 15.8556C14.2378 15.1668 14.2378 15.1668 14.3362 14.8716C14.8282 12.7068 15.3202 10.4436 15.7138 8.27884C15.8122 8.08204 15.8122 7.98364 16.009 7.98364H17.7802C17.5834 9.16443 17.3866 10.05 17.0914 11.1324C16.7962 12.6084 16.501 14.0844 16.1074 15.5604C16.1074 15.7572 16.009 15.7572 15.8122 15.7572M4.98828 8.18044C4.98828 8.08204 5.18508 7.98364 5.28348 7.98364H8.62905C9.12105 7.98364 9.51464 8.27884 9.61304 8.77084L10.4986 13.1004C10.4986 13.1988 10.4986 13.1988 10.597 13.2972C10.597 13.1988 10.6954 13.1988 10.6954 13.1988L12.7618 8.18044C12.6634 8.08204 12.7618 7.98364 12.8602 7.98364H14.9266C14.9266 8.08204 14.9266 8.08204 14.8282 8.18044L11.7778 15.3636C11.6794 15.5604 11.6794 15.6588 11.581 15.7572C11.4826 15.8556 11.2858 15.7572 11.089 15.7572H9.61304C9.51464 15.7572 9.41625 15.7572 9.41625 15.5604L7.84186 9.45963C7.64506 9.26283 7.34986 8.96763 6.95627 8.86924C6.36587 8.57404 5.28348 8.37724 5.08668 8.37724L4.98828 8.18044Z" fill="#142688"/>
  </g>
  <defs>
    <clipPath id="clip0_162_206">
      <rect width="37.3917" height="23.6158" fill="white" transform="translate(0.0703125 0.111694)"/>
    </clipPath>
  </defs>
</svg>