<svg xmlns="http://www.w3.org/2000/svg" width="179" height="22" viewBox="0 0 179 22" fill="none">
  <path d="M-178 2C-160.244 2 -160.244 20 -142.488 20C-124.731 20 -124.731 2 -106.975 2C-89.2188 2 -89.2188 20 -71.5041 20C-53.7473 20 -53.7473 2 -36.0332 2C-18.2766 2 -18.2766 20 -0.562481 20C17.1942 20 17.1942 2 34.9495 2C52.7061 2 52.7061 20 70.4628 20C88.2181 20 88.2181 2 105.975 2C123.731 2 123.731 20 141.488 20C159.243 20 159.243 2 177 2" stroke="#432818" stroke-width="3" stroke-miterlimit="10" stroke-linecap="round"/>
</svg>